<?xml version="1.0" encoding="UTF-8" standalone="no"?>
<!-- Created with Inkscape (http://www.inkscape.org/) -->

<svg
   width="704.15039mm"
   height="144.22853mm"
   viewBox="0 0 704.15039 144.22853"
   version="1.1"
   id="svg5"
   xml:space="preserve"
   xmlns:inkscape="http://www.inkscape.org/namespaces/inkscape"
   xmlns:sodipodi="http://sodipodi.sourceforge.net/DTD/sodipodi-0.dtd"
   xmlns="http://www.w3.org/2000/svg"
   xmlns:svg="http://www.w3.org/2000/svg"><sodipodi:namedview
     id="namedview7"
     pagecolor="#ffffff"
     bordercolor="#000000"
     borderopacity="0.25"
     inkscape:showpageshadow="2"
     inkscape:pageopacity="0.0"
     inkscape:pagecheckerboard="0"
     inkscape:deskcolor="#d1d1d1"
     inkscape:document-units="mm"
     showgrid="false" /><defs
     id="defs2" /><g
     inkscape:label="Layer 1"
     inkscape:groupmode="layer"
     id="layer1"
     transform="translate(269.04648,189.48048)"><g
       id="g334"
       transform="translate(162.7013,338.02597)"><path
         style="fill:#ffffff;stroke-width:0.215072"
         d="m 243.60554,-383.33755 c -4.11893,-0.63724 -5.53296,-6.39497 -3.02439,-12.31487 0.18798,-0.44359 0.29085,-0.80652 0.22863,-0.80652 -0.0622,0 0.22683,-0.67506 0.64233,-1.50014 0.4155,-0.82507 0.75546,-1.63768 0.75546,-1.80578 0,-0.16812 0.34076,-1.0232 0.75723,-1.90019 0.41648,-0.87698 0.79359,-1.78322 0.838,-2.01386 0.0444,-0.23064 0.2722,-0.8539 0.50618,-1.38504 0.46036,-1.04495 0.58146,-1.37733 1.68416,-4.62192 0.40201,-1.18289 0.8334,-2.44107 0.95868,-2.79593 0.12526,-0.35487 0.26306,-0.80512 0.30622,-1.00056 0.0432,-0.19544 0.23101,-0.65035 0.41746,-1.01092 0.18646,-0.36056 0.33901,-0.81035 0.33901,-0.99953 0,-0.18919 0.15256,-0.63898 0.33902,-0.99954 0.18645,-0.36056 0.37535,-0.84426 0.41976,-1.07488 0.0444,-0.23062 0.26936,-0.97122 0.49987,-1.64577 0.39904,-1.16773 0.65227,-2.10897 0.66324,-2.46539 0.003,-0.0899 0.14831,-0.44062 0.32344,-0.77925 0.17512,-0.33863 0.27063,-0.66345 0.21224,-0.72183 -0.0584,-0.0584 0.0352,-0.53036 0.20784,-1.04886 0.17271,-0.5185 0.36378,-1.23307 0.42462,-1.58794 0.0609,-0.35487 0.15401,-0.83878 0.20703,-1.07536 0.053,-0.23658 0.16653,-0.91405 0.25223,-1.5055 0.0857,-0.59145 0.20019,-1.31732 0.25443,-1.61304 0.8347,-4.55047 -0.3451,-8.74337 -2.48866,-8.84447 -2.112,-0.0996 -2.5908,-0.0689 -3.35824,0.21564 -0.47316,0.17542 -0.9195,0.40646 -0.99187,0.51342 -0.0724,0.10697 -0.19573,0.18216 -0.27417,0.1671 -0.22654,-0.0435 -1.42236,0.71088 -1.42236,0.89731 0,0.0928 -0.14517,0.1687 -0.32261,0.1687 -0.17743,0 -0.3226,0.0903 -0.3226,0.20057 0,0.11032 -0.17053,0.25471 -0.37896,0.32086 -0.83214,0.26411 -4.37964,3.95819 -5.59215,5.82319 -0.38453,0.59145 -0.80261,1.2253 -0.92907,1.40857 -0.28228,0.40907 -1.01675,1.8235 -3.58768,6.9091 -1.09588,2.16779 -2.65719,5.1996 -3.46958,6.73737 -0.81237,1.53776 -1.87879,3.61485 -2.3698,4.61575 -0.49101,1.0009 -0.97333,1.87194 -1.07181,1.93565 -0.0985,0.0637 -0.39863,0.55135 -0.667,1.08365 -0.26837,0.53231 -0.55723,1.01622 -0.6419,1.07536 -0.0847,0.0591 -0.28009,0.3495 -0.43423,0.64522 -1.67298,3.20981 -5.64422,6.31336 -8.92472,6.97473 -0.23658,0.0477 -0.83751,0.18041 -1.3354,0.29492 -3.37966,0.77728 -7.88768,-1.29977 -8.96958,-4.13269 -0.20294,-0.53136 -0.54047,-1.02054 -0.75013,-1.08708 -0.51729,-0.16418 -0.89805,-1.43152 -0.59101,-1.96716 0.12779,-0.22293 0.3034,-1.1312 0.39022,-2.01837 0.2774,-2.83438 0.38417,-3.15092 1.1624,-3.44681 0.30478,-0.11587 0.56491,-0.43582 0.64496,-0.79325 0.0738,-0.32948 0.32629,-1.13136 0.56106,-1.78195 0.23477,-0.6506 0.51026,-1.47325 0.61216,-1.82812 0.1019,-0.35486 0.39218,-1.22591 0.64509,-1.93564 0.25288,-0.70974 0.47851,-1.38722 0.50137,-1.50551 0.0229,-0.11829 0.15034,-0.50542 0.28329,-0.86029 0.32496,-0.8673 1.01529,-3.17303 1.03031,-3.44115 0.007,-0.11829 0.19029,-0.79576 0.40818,-1.5055 0.21787,-0.70974 0.54031,-1.82274 0.71651,-2.47333 0.17621,-0.65059 0.45987,-1.61842 0.63034,-2.15072 0.17046,-0.5323 0.35992,-1.20056 0.42098,-1.48501 0.0611,-0.28445 0.20662,-0.69577 0.32345,-0.91405 0.11682,-0.21828 0.15719,-0.39687 0.0897,-0.39687 -0.0675,0 -0.007,-0.21549 0.13361,-0.47886 0.14095,-0.26337 0.3319,-0.77147 0.42435,-1.12912 0.0924,-0.35766 0.50312,-1.56971 0.91264,-2.69346 0.40952,-1.12376 0.86289,-2.38193 1.00746,-2.79594 0.1446,-0.41401 0.49303,-1.263 0.7743,-1.88664 0.28128,-0.62365 0.5114,-1.24063 0.5114,-1.37108 0,-0.13045 0.23243,-0.78159 0.5165,-1.44697 0.28407,-0.66538 0.72782,-1.79048 0.9861,-2.50022 0.25828,-0.70974 0.6418,-1.72595 0.85225,-2.25826 0.42186,-1.06702 0.62188,-1.62003 1.54372,-4.2682 0.34362,-0.98719 0.73589,-2.00249 0.87169,-2.25622 0.13579,-0.25374 0.27329,-0.65583 0.30555,-0.89353 0.0322,-0.23769 0.25409,-0.95148 0.49297,-1.58619 0.2389,-0.63471 0.49559,-1.60254 0.57041,-2.15072 0.0748,-0.54819 0.167,-1.20096 0.20483,-1.4506 0.0757,-0.49969 0.93451,-2.27889 1.18238,-2.44958 0.0859,-0.0591 0.32483,-0.43654 0.53093,-0.83866 2.59059,-5.05399 9.5866,-6.49118 13.74293,-2.8232 1.65605,1.46149 3.39216,5.4221 3.41992,7.802 0.009,0.73547 0.2326,1.07614 0.40924,0.62232 0.20036,-0.51483 5.94151,-3.6871 6.67289,-3.6871 0.16642,0 0.41874,-0.11613 0.56069,-0.25808 0.14195,-0.14195 0.25809,-0.19528 0.25809,-0.11851 0,0.0768 0.33964,-0.002 0.75477,-0.17579 2.12065,-0.88607 7.82268,-1.23346 9.08477,-0.55349 0.26615,0.1434 0.48391,0.21625 0.48391,0.1619 0,-0.31886 3.90149,1.37359 4.46462,1.93672 0.16373,0.16373 0.42726,0.29769 0.58562,0.29769 0.65171,0 5.10916,4.09092 5.37701,4.93487 0.0772,0.24306 0.23054,0.44193 0.34085,0.44193 0.11031,0 0.20057,0.14517 0.20057,0.3226 0,0.17744 0.0731,0.32261 0.16258,0.32261 0.19995,0 1.12785,1.9862 1.12785,2.41421 0,0.17052 0.0594,0.36942 0.13197,0.442 0.98376,0.98376 1.7754,6.37155 1.33252,9.06906 -0.0981,0.59762 -0.22868,1.46343 -0.29017,1.92402 -0.0615,0.46059 -0.16642,0.92584 -0.23318,1.03388 -0.0668,0.10805 -0.15305,0.40868 -0.1917,0.66807 -0.0386,0.25939 -0.12351,0.66519 -0.18859,0.90177 -0.19748,0.71805 -0.56803,2.12892 -0.65819,2.50606 -0.0467,0.19544 -0.23363,0.64289 -0.41537,0.99432 -0.18173,0.35145 -0.27875,0.69065 -0.21561,0.7538 0.0631,0.0632 -0.0449,0.42363 -0.24004,0.80105 -0.19518,0.37743 -0.39265,0.84615 -0.43883,1.04158 -0.15965,0.67572 -1.10173,3.15384 -1.45965,3.83959 -0.19757,0.37856 -0.35924,0.83108 -0.35924,1.00559 0,0.17451 -0.38712,1.11783 -0.86028,2.09625 -0.47316,0.97844 -0.86029,1.90988 -0.86029,2.06987 0,0.15999 -0.16053,0.60063 -0.35672,0.9792 -0.19621,0.37857 -0.4298,0.97865 -0.51912,1.33352 -0.0893,0.35487 -0.37108,1.17752 -0.62616,1.82811 -0.65126,1.66096 -1.29056,3.47128 -1.40509,3.97883 -0.0534,0.23658 -0.30084,0.96245 -0.54989,1.61304 -0.24908,0.65059 -0.48243,1.38584 -0.51856,1.63388 -0.0362,0.24803 -0.22353,0.75614 -0.4164,1.12912 -0.19288,0.37299 -0.30325,0.67815 -0.24527,0.67815 0.058,0 -0.0813,0.43552 -0.30945,0.96783 -0.22817,0.5323 -0.3685,0.96782 -0.31187,0.96782 0.0567,0 -0.19509,0.59049 -0.5594,1.3122 -0.36432,0.7217 -0.61511,1.35948 -0.55732,1.41726 0.0578,0.0578 -0.323,0.9846 -0.8462,2.05958 -0.52321,1.07498 -0.95129,2.07704 -0.95129,2.22681 0,0.27813 -5.39359,11.64733 -6.14518,12.95345 -1.89421,3.29184 -4.4983,5.64731 -6.32899,5.72474 -0.17744,0.008 -0.41939,0.0668 -0.53768,0.13167 -0.11829,0.0649 -0.6022,0.0581 -1.07536,-0.0151 z m 1.61749,-3.5521 c 0.55093,-0.17486 2.51981,-2.39161 3.05512,-3.43974 0.24166,-0.47316 0.51155,-0.90868 0.59975,-0.96782 0.20283,-0.136 5.79924,-11.90183 5.90562,-12.41592 0.0434,-0.20948 0.37586,-1.02967 0.7389,-1.82266 0.36306,-0.79299 0.79865,-1.8092 0.968,-2.25826 0.16934,-0.44905 0.5652,-1.49394 0.87966,-2.32196 0.31446,-0.82803 0.64573,-1.79813 0.73617,-2.15578 0.0905,-0.35765 0.27977,-0.86576 0.42072,-1.12913 0.14096,-0.26337 0.20108,-0.47885 0.13361,-0.47885 -0.0675,0 -0.007,-0.21548 0.1336,-0.47885 0.14096,-0.26337 0.32973,-0.77148 0.41952,-1.12913 0.0898,-0.35765 0.40823,-1.30356 0.70767,-2.10201 0.29943,-0.79846 0.49921,-1.45174 0.44395,-1.45174 -0.0553,0 0.0951,-0.38327 0.33408,-0.85172 0.69685,-1.36594 0.51903,-1.57467 -0.47955,-0.56293 -4.22367,4.27931 -5.14145,4.87328 -6.11568,3.95802 -0.845,-0.79382 -0.64111,-1.19113 2.02931,-3.95435 1.3899,-1.43821 2.75221,-2.91888 3.02738,-3.29038 0.62398,-0.8425 1.40622,-0.88686 2.2016,-0.12484 0.58231,0.55789 1.0674,-0.0201 1.38861,-1.65461 0.038,-0.19319 0.28332,-0.7713 0.54523,-1.28468 0.44998,-0.88202 0.91713,-2.04713 2.01731,-5.03129 0.26166,-0.70974 0.58625,-1.49547 0.72131,-1.74607 0.13507,-0.2506 0.19346,-0.50775 0.12976,-0.57146 -0.0637,-0.0637 0.0485,-0.43371 0.24946,-0.82223 0.47303,-0.91474 0.79041,-1.9147 1.59747,-5.03298 0.91908,-3.55112 1.20756,-6.92006 0.8108,-9.46847 -0.21424,-1.37595 -1.30915,-3.94351 -2.03261,-4.76642 -0.22739,-0.25866 -0.60099,-0.7291 -0.8302,-1.04543 -0.56045,-0.77351 -0.72165,-0.93622 -2.02602,-2.0451 -0.61831,-0.52563 -1.31912,-1.12219 -1.55733,-1.32569 -0.23824,-0.20349 -0.61522,-0.42777 -0.83775,-0.4984 -0.22254,-0.0706 -0.40459,-0.20398 -0.40459,-0.29633 0,-0.30419 -2.99893,-1.39696 -4.51652,-1.64577 -0.89541,-0.1468 -4.35886,-0.14212 -5.16054,0.007 -0.98129,0.1825 -3.94203,1.17791 -4.08443,1.3732 -0.0609,0.0835 -0.52198,0.33315 -1.02471,0.55486 -0.50273,0.22171 -0.91406,0.48519 -0.91406,0.58551 0,0.10032 -0.0964,0.18241 -0.2143,0.18241 -0.42489,0 -3.3286,2.23084 -4.50145,3.45833 -1.36876,1.43255 -1.36248,1.42512 -2.48877,2.93585 -2.35992,3.16539 -4.77867,1.78369 -3.07882,-1.75876 0.45109,-0.94006 0.82017,-1.8401 0.82017,-2.00009 0,-0.16 0.13453,-0.55224 0.29893,-0.87167 0.57771,-1.12233 0.90201,-4.98315 0.43178,-5.14027 -0.30099,-0.10059 -2.19767,1.3668 -7.85228,6.07505 -4.68758,3.90307 -5.05505,4.10824 -5.91342,3.30184 -0.48101,-0.45189 -0.48101,-0.45189 -0.8259,0.21507 -0.18969,0.36682 -0.29641,0.66695 -0.23716,0.66695 0.0592,0 0.002,0.26615 -0.12874,0.59145 -1.16786,2.92115 -1.92401,4.88448 -2.34001,6.07578 -0.14455,0.41402 -0.45489,1.18828 -0.68965,1.72058 -0.23475,0.5323 -0.46842,1.19641 -0.51924,1.4758 -0.0508,0.27938 -0.33214,0.98105 -0.62515,1.55927 -0.293,0.57821 -0.48815,1.0513 -0.43368,1.0513 0.0545,0 -0.0954,0.43963 -0.33308,0.97697 -0.23769,0.53733 -0.46851,1.14222 -0.51292,1.3442 -0.1053,0.47879 -0.51387,1.66578 -0.92301,2.68144 -0.5537,1.3746 -0.21823,1.12199 2.98411,-2.24703 13.55482,-14.26036 14.07616,-14.71638 15.40106,-13.47169 0.83229,0.78188 0.70086,0.95283 -5.68553,7.39473 -6.24421,6.2985 -11.62559,12.057 -13.86365,14.83523 -1.11044,1.37844 -1.53185,2.23336 -2.01055,4.07887 -0.0921,0.35486 -0.18314,0.6936 -0.20243,0.75275 -0.0194,0.0591 -0.11038,0.39788 -0.20243,0.75275 -0.28991,1.11773 -1.02161,3.41086 -1.3382,4.1939 -0.16736,0.41402 -0.2969,0.80115 -0.28785,0.86029 0.009,0.0592 -0.23507,0.78501 -0.54254,1.61304 -0.30744,0.82803 -0.59274,1.69907 -0.63399,1.93565 -0.0412,0.23658 -0.28559,0.96245 -0.54299,1.61304 -0.2574,0.65059 -0.54876,1.47324 -0.6475,1.82811 -0.0987,0.35487 -0.40792,1.2745 -0.68711,2.04362 -0.59807,1.64755 -0.47058,2.92196 0.38455,3.84418 0.28557,0.30798 0.51923,0.61153 0.51923,0.67456 0,0.19574 1.35433,0.82609 2.28499,1.0635 3.41046,0.87003 7.51896,-1.22772 10.09132,-5.15253 0.34889,-0.5323 0.69344,-1.01622 0.7657,-1.07536 0.0722,-0.0591 0.34244,-0.58806 0.60042,-1.17537 0.25798,-0.58731 0.54972,-1.11961 0.64836,-1.1829 0.0986,-0.0633 0.54269,-0.84093 0.98685,-1.7281 0.44417,-0.88717 0.87952,-1.66143 0.96748,-1.72057 0.088,-0.0591 0.65913,-1.16817 1.26925,-2.46449 0.61014,-1.29632 1.19025,-2.40932 1.28914,-2.47333 0.0989,-0.064 0.87272,-1.51972 1.71963,-3.23492 3.05682,-6.19083 4.7153,-9.2793 5.45433,-10.15723 0.20701,-0.24591 0.37638,-0.52909 0.37638,-0.62928 0,-0.10019 0.16937,-0.35934 0.37638,-0.5759 0.207,-0.21656 0.81189,-0.90806 1.3442,-1.53667 1.24511,-1.47039 1.72089,-1.95007 2.4584,-2.47857 0.33016,-0.23658 0.73376,-0.55707 0.89691,-0.71221 0.61451,-0.58431 4.01518,-2.60648 4.77684,-2.84048 0.43634,-0.13406 0.93851,-0.2994 1.11594,-0.36742 2.03996,-0.7821 4.22556,-0.7497 5.89375,0.0874 1.34461,0.6747 2.84613,2.22855 3.04279,3.14881 0.0804,0.37616 0.24361,0.8049 0.36272,0.95276 0.11913,0.14787 0.14449,0.26884 0.0564,0.26884 -0.0881,0 -0.0621,0.12098 0.0579,0.26884 0.71157,0.87712 0.81951,5.70162 0.19369,8.65665 -0.0751,0.35487 -0.1921,0.98395 -0.25987,1.39797 -0.12037,0.73536 -0.87674,4.09053 -1.06665,4.73158 -0.12476,0.42116 -0.52583,1.93871 -0.63964,2.42037 -0.049,0.20745 -0.1558,0.48502 -0.23725,0.61682 -0.0815,0.13179 -0.22494,0.54275 -0.31884,0.91324 -0.0939,0.37049 -0.52269,1.64144 -0.95282,2.82434 -0.43014,1.1829 -0.86007,2.45385 -0.95541,2.82434 -0.0953,0.37048 -0.23998,0.78145 -0.32145,0.91324 -0.0814,0.1318 -0.1853,0.40937 -0.23077,0.61682 -0.1164,0.53105 -0.5377,1.74851 -0.91201,2.63544 -0.1747,0.41401 -0.3599,0.98355 -0.4115,1.26564 -0.0516,0.28209 -0.23724,0.79019 -0.41253,1.12913 -0.17526,0.33893 -0.27189,0.61624 -0.21473,0.61624 0.0571,0 -0.18225,0.60489 -0.532,1.3442 -0.34975,0.73931 -0.63599,1.45178 -0.63607,1.58327 -9e-5,0.13148 -0.3935,1.07838 -0.87421,2.1042 -0.48072,1.02583 -0.90827,2.03125 -0.95012,2.23426 -0.0419,0.20302 -0.32478,0.92562 -0.62876,1.60579 -0.30396,0.68016 -0.50353,1.23666 -0.44348,1.23666 0.0601,0 -0.0755,0.36293 -0.30129,0.80652 -0.22579,0.44359 -0.46815,1.14526 -0.53859,1.55927 -0.0705,0.41401 -0.22909,1.31773 -0.35257,2.00826 -0.34572,1.9337 -0.18543,3.10894 0.52028,3.81466 0.57496,0.57494 0.85646,0.62133 1.85244,0.30522 z m 3.68926,-14.58358 c -0.74727,-0.79543 -0.57816,-1.18757 1.41425,-3.27925 1.03503,-1.08661 2.10699,-2.27821 2.38216,-2.648 0.8856,-1.19025 2.61826,-0.5723 2.61826,0.93381 0,1.87675 -5.3963,6.07745 -6.41467,4.99344 z m -36.77731,-7.09737 c -0.89476,-0.95244 -0.77084,-1.11821 5.49017,-7.34325 6.25618,-6.22027 6.45484,-6.36714 7.33918,-5.42581 0.97935,1.04247 0.87814,1.18073 -5.43698,7.42679 -6.27356,6.20498 -6.45721,6.33769 -7.39237,5.34227 z m 3.45034,-12.03425 c -1.01792,-1.08352 -0.89866,-1.24444 4.95375,-6.68493 2.98681,-2.77658 7.37736,-7.01669 9.75678,-9.42247 3.80185,-3.84395 5.18689,-5.40448 7.67321,-8.64541 0.9523,-1.24131 2.73301,-0.7816 2.73301,0.70555 0,1.31874 -8.25472,10.0622 -18.46391,19.55713 -5.43962,5.05906 -5.85499,5.33939 -6.65284,4.49013 z m 40.20927,-15.27989 c -0.90982,-0.96847 -0.45109,-1.66371 2.75845,-4.18051 0.76888,-0.60292 2.02426,-1.73261 2.78972,-2.51042 1.54671,-1.57162 2.18094,-1.76668 2.97974,-0.91641 0.95212,1.0135 -0.42202,2.79958 -4.95339,6.4383 -2.24466,1.80247 -2.80673,1.9863 -3.57452,1.16904 z m -4.94665,-8.17274 c -1.11315,-1.18489 -1.28211,-0.9852 6.30713,-7.45445 1.41948,-1.21 2.85407,-2.52887 3.18797,-2.93083 0.73359,-0.8831 1.56738,-0.96913 2.25888,-0.23306 1.11405,1.18585 0.5011,1.90393 -6.99397,8.19351 -3.64239,3.05657 -3.99687,3.23715 -4.76001,2.42483 z m -8.18919,-3.8888 c -0.915,-0.97399 -0.6205,-1.47467 2.45229,-4.16889 1.53777,-1.34831 3.92784,-3.55586 5.31127,-4.90566 2.70546,-2.63971 3.15758,-2.86047 4.00688,-1.95643 0.86839,0.92438 0.66614,1.26916 -2.59715,4.42709 -6.74934,6.53145 -8.23594,7.60164 -9.17329,6.60389 z m -14.88928,-10.56463 c 4.49227,-3.69057 6.55324,-5.35659 7.10142,-5.74055 1.57619,-1.10402 -3.45752,-3.14928 -5.43795,-2.2095 -1.51821,0.72043 -3.63031,3.05279 -3.48173,3.84481 0.099,0.52757 0.005,0.85551 -0.40305,1.4088 -0.29263,0.39663 -0.47853,0.80775 -0.41313,0.91359 0.0654,0.10583 -0.0563,0.45432 -0.27039,0.77442 -0.21412,0.32009 -0.39296,0.63038 -0.39741,0.68952 -0.005,0.0592 -0.11341,0.39789 -0.24217,0.75276 -0.46453,1.28037 -0.75559,2.15751 -0.83392,2.51313 -0.0439,0.19933 -0.198,0.58646 -0.34242,0.86029 -0.17347,0.32895 0.0951,0.16823 0.79149,-0.47366 0.57975,-0.53433 2.3479,-2.03446 3.92926,-3.33361 z m -609.86347,73.66579 c -2.5033,-0.5279 -6.7335,-3.94481 -8.0229,-6.48038 -0.2628,-0.51674 -0.8352,-1.47184 -1.2721,-2.12243 -3.5366,-5.26702 -8.075,-13.47442 -13.2606,-23.98053 -1.8099,-3.66698 -4.3627,-8.69966 -5.6728,-11.18374 -8.5993,-16.30441 -14.1949,-27.91998 -15.8003,-32.79848 -1.1881,-3.61042 -2.5093,-7.18882 -2.7,-7.31245 -0.4038,-0.26184 -2.145,-4.56502 -2.145,-5.30115 0,-0.18671 -0.2024,-1.17534 -0.4497,-2.19697 -1.0229,-4.22497 0.4445,-10.38265 2.8193,-11.83033 4.8672,-2.9671 10.3992,2.25455 19.3378,18.25309 2.2388,4.00705 4.4011,7.59538 4.4603,7.40171 0.089,-0.29001 1.2972,-10.02504 1.6933,-13.63879 0.188,-1.7152 0.4852,-3.84442 0.6604,-4.73159 0.1753,-0.88717 0.4082,-2.82282 0.5177,-4.30144 0.331,-4.47243 1.0273,-8.46224 2.0268,-11.61388 0.5065,-1.59691 1.2284,-3.88841 1.6044,-5.09222 2.5372,-8.1243 8.1338,-13.0078 14.2892,-12.46857 7.1963,0.6304 7.4608,4.47147 1.7131,24.87323 -1.9388,6.882 -2.8649,10.54964 -4.3716,17.3133 -0.5007,2.2475 -1.6304,6.74788 -2.5106,10.00084 -1.4772,5.45961 -2.6463,10.03002 -2.647,10.34753 -2e-4,0.0724 0.6046,0.19371 1.3439,0.26963 2.5672,0.26361 4.7243,0.95065 15.1219,4.81639 1.8998,0.70634 5.8679,2.03217 8.818,2.94628 23.7974,7.374 38.9322,17.00616 39.4128,25.08337 0.5135,8.62844 -13.8887,6.80569 -32.5436,-4.11876 -12.4655,-7.29983 -15.9491,-9.14461 -23.5504,-12.47139 -6.3197,-2.76586 -7.3125,-3.18385 -7.3125,-3.07881 0,0.0568 0.7706,1.49489 1.7124,3.19566 5.8506,10.56509 13.2835,28.285 15.2923,36.45634 2.1302,8.66503 -1.9153,15.16678 -8.5645,13.76454 z m 3.9498,-3.01088 c 2.6854,-1.15207 3.3576,-5.30234 1.8206,-11.24012 -2.0114,-7.77015 -9.2976,-25.11991 -14.4351,-34.37223 -1.9244,-3.4657 -2.26,-6.94183 -0.6851,-7.09568 0.086,-0.008 0.5055,-0.0581 0.9317,-0.11031 0.6352,-0.0779 1.781,0.34825 6.3622,2.36621 9.981,4.39651 11.5879,5.22289 22.1128,11.37173 18.9365,11.06312 32.379,14.62034 32.3662,8.56488 -0.014,-6.65935 -15.7072,-16.24893 -37.2053,-22.73509 -1.8335,-0.55318 -3.4788,-1.05658 -3.6563,-1.11866 -0.2122,-0.0743 -0.1651,0.0645 0.1376,0.40547 1.6165,1.82079 2.805,7.4042 1.8031,8.47066 -1.3221,1.40729 -2.4565,0.41365 -2.8193,-2.46933 -0.1801,-1.43135 -0.4409,-2.40974 -0.8721,-3.27236 -0.9212,-1.84299 -0.56,-3.16106 0.8742,-3.18939 0.3046,-0.006 -0.7526,-0.47599 -2.3495,-1.04439 -1.597,-0.56839 -3.823,-1.3953 -4.9467,-1.83757 -2.2133,-0.87109 -7.2659,-2.69897 -7.4604,-2.69897 -0.066,0 10e-4,0.14586 0.1492,0.32414 0.9792,1.17979 -0.3152,5.91295 -1.617,5.91295 -1.4573,0 -2.0007,-4.78483 -0.7016,-6.1777 0.5058,-0.54222 0.4598,-0.57892 -1.1238,-0.89833 -0.9843,-0.19852 -1.9578,-0.50803 -3.1185,-0.99146 -0.4386,-0.18264 -0.8271,-0.62794 -1.2129,-1.39001 -0.6801,-1.34322 -0.8108,-0.60215 1.8594,-10.54419 1.0007,-3.72612 2.2984,-8.90398 2.8838,-11.50635 1.589,-7.06459 2.3122,-10.01432 3.2431,-13.22693 6.3592,-21.94669 6.4825,-26.87294 0.6465,-25.83949 -5.3799,0.95271 -9.1016,5.06217 -11.0524,12.20394 -0.2875,1.05277 -0.7735,2.76244 -1.0798,3.79926 -0.3064,1.03682 -0.557,2.00733 -0.557,2.15668 0,0.14936 -0.2445,1.02009 -0.5433,1.93496 -0.5458,1.67108 -0.8833,3.70148 -1.0802,6.4974 -0.058,0.82803 -0.1531,1.71858 -0.2106,1.979 -0.111,0.50304 -0.6199,4.98539 -0.9717,8.55953 -0.2839,2.88396 -1.1959,10.2076 -1.6246,13.04523 -0.4281,2.8342 -1.114,3.78383 -2.4579,3.40287 -1.1024,-0.31252 -0.9874,-0.15878 -3.9865,-5.32989 -7.6894,-13.2579 -10.2546,-17.25348 -12.6612,-19.72062 -7.0673,-7.24526 -10.7338,1.45517 -5.4938,13.03639 0.6093,1.34658 1.816,4.52914 2.6816,7.07237 1.7183,5.04823 2.5162,6.96791 4.7859,11.51399 0.8247,1.65185 2.0646,4.21315 2.7554,5.69177 1.2505,2.67657 8.2226,16.22818 10.4566,20.3243 0.6451,1.1829 3.1695,6.16719 5.6098,11.07621 11.2743,22.68052 16.9023,29.47614 22.4429,27.09913 z m -3.7496,-4.36913 c -0.5926,-0.63083 -0.5842,-0.9482 0.081,-3.03035 0.3418,-1.07038 0.5901,-2.46438 0.6705,-3.76376 0.3049,-4.93316 2.9884,-4.19978 2.8156,0.76949 -0.176,5.06139 -1.8367,7.86631 -3.5668,6.02462 z m -6.9274,-8.6509 c -0.5128,-0.5458 -0.5128,-0.5458 0.2073,-4.06646 0.608,-2.97251 0.6963,-3.76184 0.5675,-5.06965 -0.1741,-1.76611 0.2614,-2.5772 1.3835,-2.5772 1.8145,0 2.2078,2.94089 1.0914,8.1606 -0.8646,4.04192 -1.8145,5.08043 -3.2497,3.55271 z m -5.9769,-11.13572 c -0.6031,-0.642 -0.6007,-0.6894 0.2726,-5.22675 0.8679,-4.50976 0.9283,-5.11938 0.6864,-6.92647 -0.2095,-1.56457 0.2687,-2.40405 1.3693,-2.40405 1.9315,0 2.2452,3.19333 0.9731,9.90631 -0.9703,5.12089 -1.7836,6.26661 -3.3014,4.65096 z m 57.8541,-6.02227 c -0.2573,-0.27391 -0.7468,-1.31432 -1.0878,-2.31202 -0.3409,-0.9977 -0.8247,-2.32569 -1.0751,-2.95109 -0.9909,-2.47522 0.3808,-4.35391 1.9571,-2.68044 0.5971,0.63395 2.7494,6.10521 2.7494,6.98915 0,1.23883 -1.6831,1.87036 -2.5436,0.9544 z m -63.8761,-2.79568 c -0.6041,-0.64298 -0.6025,-0.66353 0.2934,-3.81495 1.1847,-4.16721 1.579,-6.73551 1.1131,-7.25031 -0.8022,-0.88636 -0.048,-2.41665 1.1901,-2.41665 1.8226,0 2.4747,2.5047 1.6709,6.41838 -1.3688,6.66481 -2.65,8.78532 -4.2675,7.06353 z m 57.0105,-1.70672 c -0.2482,-0.26615 -0.7068,-1.39593 -1.0191,-2.51061 -0.6708,-2.39422 -0.926,-2.92477 -1.8116,-3.76671 -1.6995,-1.61578 0.8533,-3.49347 2.6016,-1.91364 0.8675,0.7839 2.756,5.7978 2.756,7.31717 0,1.14404 -1.7203,1.7389 -2.5269,0.87379 z m -9.6561,-3.44681 c -0.3376,-0.38755 -0.9525,-1.59722 -1.3665,-2.68816 -0.5097,-1.34317 -0.8622,-1.9836 -1.0917,-1.98376 -1.2052,-8.6e-4 -1.6224,-1.81961 -0.6124,-2.66952 1.8708,-1.57418 4.4936,1.40254 5.7252,6.49779 0.3359,1.38958 -1.6339,2.01558 -2.6546,0.84365 z m -9.2783,-4.30068 c -0.273,-0.29063 -0.6338,-1.21993 -0.8899,-2.29204 -0.2942,-1.23186 -0.6035,-1.98365 -0.9762,-2.37266 -0.9701,-1.01252 -0.3623,-2.58908 0.9981,-2.58908 1.4277,0 3.4163,3.77839 3.4045,6.46844 -0.01,1.07636 -1.7542,1.61803 -2.5365,0.78534 z m -42.1625,-0.65418 c -0.6583,-0.7007 -0.6104,-1.22562 0.6077,-6.66516 0.7315,-3.26628 1.0754,-5.28409 1.0754,-6.30954 0,-1.6848 0.4765,-2.44285 1.5356,-2.44285 1.8759,0 1.9408,2.79251 0.2388,10.2619 -1.2704,5.57545 -2.0171,6.68888 -3.4575,5.15565 z m -6.2371,-5.80694 c -0.6433,-0.68474 -0.591,-1.29703 0.3091,-3.62391 1.8724,-4.83999 2.4408,-7.01026 2.4452,-9.3366 0,-1.98425 0.046,-2.20643 0.5019,-2.63463 2.2943,-2.1553 3.4173,2.45215 1.8462,7.57373 -2.2723,7.40719 -3.6479,9.56966 -5.1024,8.02141 z m 30.9887,-0.41628 c -0.3769,-0.40596 -0.4679,-0.84772 -0.5646,-2.74217 -0.063,-1.24204 -0.1792,-2.67606 -0.2573,-3.18671 -0.3826,-2.49949 2.1947,-2.57653 3.0602,-0.0915 1.2399,3.56013 -0.4077,7.99184 -2.2383,6.02036 z m -19.8049,-9.04689 c -1.1137,-1.18543 -0.3059,-2.28624 1.9989,-2.72405 0.9698,-0.18422 1.7971,-0.50085 2.3443,-0.89722 1.3307,-0.96396 2.7166,-0.49441 2.7166,0.92036 0,1.94286 -5.7172,4.13011 -7.0598,2.70091 z m -14.6249,-4.51651 c -0.5982,-0.63668 -0.585,-1.15404 0.083,-3.26599 1.4944,-4.72484 1.9925,-6.7502 1.8751,-7.62527 -0.2412,-1.7986 1.3128,-2.53574 2.4986,-1.18519 1.061,1.20846 0.9745,1.89785 -1.0916,8.70293 -1.1554,3.80565 -2.0844,4.73688 -3.3652,3.37352 z m -6.8823,-10.10838 c -0.6812,-0.72503 -0.6249,-0.94232 1.13,-4.36074 1.743,-3.39531 2.6034,-5.66166 2.5112,-6.61445 -0.1448,-1.49641 1.6533,-2.1654 2.6468,-0.98471 2.0224,2.40353 -4.1811,14.20266 -6.288,11.9599 z m 21.7012,-1.56453 c -1.1345,-0.95464 -0.6153,-2.88436 0.776,-2.88436 0.2432,0 1.1059,-0.48391 1.9172,-1.07536 2.5241,-1.84016 4.884,-0.2308 2.5058,1.7089 -3.4914,2.84774 -4.1505,3.13306 -5.199,2.25082 z m 2.1718,-10.04936 c -0.9427,-1.00338 -0.1896,-2.29816 1.3366,-2.29816 0.6463,0 1.1242,-0.23748 2.3804,-1.1829 2.1045,-1.58396 3.731,-1.37206 3.5206,0.4587 -0.2421,2.10639 -5.8846,4.46264 -7.2376,3.02236 z m -27.7443,-0.21507 c -0.7071,-0.75262 -0.5961,-1.19218 1.0378,-4.11129 1.0311,-1.84194 1.5055,-2.91723 1.5055,-3.41177 0,-1.57385 1.7669,-2.19859 2.8932,-1.02299 0.8558,0.89333 0.6976,1.51415 -1.2973,5.08887 -2.3232,4.16288 -2.9693,4.70253 -4.1392,3.45718 z m 27.7443,-7.74259 c -0.8866,-0.94373 -0.557,-1.61598 1.2693,-2.58914 0.5233,-0.2788 1.5805,-0.8575 2.3494,-1.28598 1.6325,-0.90976 2.3283,-0.97787 2.9735,-0.29106 0.9363,0.9966 0.3905,1.86006 -2.0057,3.17295 -0.7097,0.38887 -1.5473,0.88343 -1.8613,1.09902 -0.8237,0.56556 -2.1426,0.51436 -2.7252,-0.10579 z m 1.0378,-9.54743 c -2.1226,-0.77592 -1.4373,-3.29175 0.8152,-2.99294 0.8742,0.11597 1.3097,0.0314 2.6196,-0.50876 2.2605,-0.93217 3.4475,-0.62649 3.4475,0.88779 0,1.50041 -4.8693,3.34977 -6.8823,2.61391 z m 2.8334,-10.2392 c -1.0776,-1.1471 -0.5898,-1.83626 2.5434,-3.59301 1.1238,-0.63007 2.4549,-1.42403 2.958,-1.76434 2.1793,-1.474 3.5479,-1.7782 4.317,-0.95955 0.931,0.99098 0.3416,1.94013 -1.8982,3.05674 -0.6506,0.32435 -1.57,0.84958 -2.0432,1.16718 -3.5669,2.39423 -5.0858,2.93516 -5.877,2.09298 z m 510.72166,111.37096 c -0.0389,-0.0364 -0.41558,-0.1116 -0.8371,-0.16713 -0.4215,-0.0555 -0.96529,-0.20741 -1.20838,-0.33751 -0.2431,-0.13011 -0.48759,-0.19097 -0.5433,-0.13526 -0.13586,0.13586 -4.68276,-2.01726 -5.06301,-2.39752 -0.16487,-0.16487 -0.37484,-0.29977 -0.46657,-0.29977 -0.0918,0 -0.36616,-0.16937 -0.6098,-0.37638 -0.24365,-0.207 -0.66117,-0.52155 -0.92782,-0.69898 -0.66855,-0.44485 -3.15837,-2.92924 -4.0718,-4.06292 -0.41402,-0.51385 -0.84954,-1.04387 -0.96783,-1.17784 -1.32577,-1.5015 -3.472365,-6.07713 -4.099745,-8.73892 -0.0976,-0.41401 -0.19496,-0.82534 -0.21643,-0.91406 -0.0215,-0.0887 -0.0585,-0.1855 -0.0824,-0.21507 -0.36287,-0.45019 -0.57784,-6.36471 -0.34199,-9.4094 0.11044,-1.42554 0.37842,-3.97968 0.4626,-4.40897 0.0464,-0.23658 0.13578,-1.15602 0.1986,-2.04319 0.0628,-0.88717 0.15627,-1.95178 0.20767,-2.36579 0.0514,-0.41401 0.15251,-1.33345 0.22471,-2.04318 0.0722,-0.70974 0.16664,-1.53239 0.20987,-1.82811 0.0432,-0.29573 0.13745,-0.97321 0.20935,-1.50551 0.0719,-0.5323 0.17083,-1.113 0.21978,-1.29043 0.049,-0.17743 0.1498,-0.66135 0.22406,-1.07536 0.0743,-0.41401 0.1587,-0.84953 0.18765,-0.96782 0.0289,-0.11829 0.13627,-0.69899 0.23854,-1.29044 0.102265,-0.59144 0.198555,-1.12375 0.213995,-1.18289 0.0155,-0.0591 0.0918,-0.34949 0.16959,-0.64522 0.0778,-0.29572 0.18784,-0.77963 0.24443,-1.07536 0.13708,-0.7164 0.43483,-1.81879 0.82775,-3.06477 0.17719,-0.56188 0.27985,-1.0216 0.2281,-1.0216 -0.0517,0 0.0189,-0.21115 0.15709,-0.46923 0.13812,-0.25807 0.38777,-1.00814 0.5548,-1.6668 0.16702,-0.65867 0.39896,-1.53632 0.5154,-1.95033 0.11644,-0.41402 0.25161,-0.89793 0.30037,-1.07536 0.10783,-0.39234 0.50757,-1.56246 0.88166,-2.58087 0.15208,-0.41401 0.34706,-1.0431 0.43329,-1.39796 0.0862,-0.35487 0.19001,-0.7662 0.23066,-0.91406 0.16148,-0.58744 0.25684,-1.03361 0.27252,-1.27507 0.009,-0.13941 0.15816,-0.39519 0.33138,-0.5684 0.1732,-0.1732 0.30469,-0.54305 0.29218,-0.82188 -0.0621,-1.38489 0.33661,-1.8998 1.98829,-2.56805 2.31046,-0.93478 4.61704,-0.56941 6.55467,1.03826 0.39287,0.32598 1.11153,0.9204 1.59704,1.32093 0.4904,0.4046 1.07553,1.16925 1.31662,1.72058 0.23867,0.54578 0.52708,1.18589 0.64092,1.42247 0.25021,0.51996 0.79473,3.32587 0.73152,3.76959 -0.0248,0.17423 -0.10966,0.89747 -0.18855,1.60721 -0.12771,1.14885 -0.60554,3.29741 -1.21967,5.48433 -0.11627,0.41402 -0.25151,0.92249 -0.30052,1.12994 -0.049,0.20745 -0.15217,0.47913 -0.22916,0.60374 -0.077,0.1246 -0.17165,0.43878 -0.2103,0.69817 -0.10169,0.68239 -0.25228,1.25757 -0.4895,1.86959 -0.11462,0.29573 -0.20976,0.58608 -0.2114,0.64522 -0.002,0.0591 -0.12018,0.54268 -0.2634,1.07452 -0.3865,1.43545 -0.45044,1.71949 -0.67337,2.99207 -0.11207,0.63971 -0.24387,1.228 -0.29288,1.30731 -0.53162,0.86017 -0.53248,9.46768 0,10.32758 0.0485,0.0784 0.13982,0.43619 0.20305,0.79512 0.0632,0.35894 0.26041,0.93149 0.43816,1.27233 0.17776,0.34085 0.32382,0.7407 0.32453,0.88856 0,0.14787 0.0739,0.26995 0.16263,0.27131 0.0887,10e-4 0.34468,0.38527 0.5688,0.85314 0.96837,2.02147 2.81235,3.23453 5.14893,3.38722 2.39748,0.15666 3.50721,-0.28286 6.78871,-2.68873 0.52049,-0.38159 1.07699,-0.69381 1.23666,-0.69381 0.15969,0 0.29035,-0.0777 0.29035,-0.17258 0,-0.0949 0.50811,-0.34563 1.12913,-0.55713 0.62102,-0.2115 1.2743,-0.44002 1.45173,-0.50782 0.17744,-0.0678 0.3952,-0.14374 0.48392,-0.16874 0.0887,-0.025 0.18549,-0.065 0.21507,-0.0888 0.31301,-0.25231 2.68857,-0.34663 3.57746,-0.14204 2.27477,0.52355 5.397,2.98764 5.40313,4.26418 0,0.15202 0.13676,0.53604 0.30232,0.85336 0.68217,1.30753 0.85956,3.45176 0.43223,5.22453 -0.24894,1.03278 -2.14616,5.26507 -2.46089,5.48979 -0.0829,0.0591 -0.32186,0.44155 -0.53112,0.84977 -0.20929,0.40823 -0.48895,0.85609 -0.62148,0.99524 -0.13252,0.13916 -0.38611,0.46596 -0.56355,0.72623 -0.71488,1.04861 -1.50004,1.92295 -3.67085,4.0877 -3.28955,3.27936 -8.1137,6.67553 -9.4834,6.67553 -0.0843,0 -0.42569,0.11165 -0.75869,0.24812 -0.78198,0.32046 -1.72843,0.58722 -3.40139,0.95867 -0.5409,0.12011 -3.92026,0.28399 -4.01565,0.19475 z m 4.3916,-3.59299 c 0.50297,-0.11565 1.08805,-0.24583 1.30017,-0.28929 0.72843,-0.14923 1.87257,-0.61679 1.87257,-0.76523 0,-0.0817 0.22209,-0.2043 0.49353,-0.27242 0.53806,-0.13505 2.73294,-1.51895 3.59284,-2.26533 0.29572,-0.25669 0.85629,-0.72986 1.24572,-1.05148 1.12579,-0.92983 2.45584,-2.25979 3.27079,-3.2706 0.41401,-0.51351 0.85093,-1.03871 0.97092,-1.16711 0.11999,-0.12839 0.55465,-0.66897 0.96591,-1.20127 0.90425,-1.17037 1.11741,-1.44228 1.39679,-1.78181 6.06135,-7.36633 1.39848,-14.96621 -6.20345,-10.11083 -0.84653,0.54068 -1.58754,1.04746 -1.64668,1.12617 -1.08672,1.44625 -6.64175,2.87019 -9.14056,2.34303 -0.70503,-0.14873 -3.57862,-1.40563 -3.75913,-1.64423 -0.61281,-0.80997 -1.07977,-0.95366 -0.94733,-0.2915 0.17079,0.85394 -0.38782,1.57361 -4.40986,5.68136 -3.11493,3.18131 -3.50546,3.39867 -4.47311,2.4896 -0.82882,-0.77864 -0.63627,-1.23345 1.35194,-3.19334 2.67453,-2.63639 4.38736,-4.66742 4.38736,-5.20241 0,-1.14704 1.56803,-1.85942 2.41189,-1.09575 0.37831,0.34237 0.39414,0.34237 0.26275,0 -0.0769,-0.20038 -0.22621,-0.36432 -0.33186,-0.36432 -0.10562,0 -0.19206,-0.14517 -0.19206,-0.32261 0,-0.17743 -0.0726,-0.32336 -0.1613,-0.32428 -0.21073,-0.002 -0.6028,-0.83029 -1.27209,-2.68673 -0.29852,-0.82802 -0.62368,-1.69906 -0.7226,-1.93564 -1.20552,-2.88345 -1.54944,-8.68142 -0.73356,-12.36664 0.0655,-0.29573 0.16629,-0.82803 0.22404,-1.1829 0.0577,-0.35487 0.1365,-0.742 0.175,-0.86029 0.0385,-0.11829 -1.43169,1.26086 -3.26707,3.06478 -3.58224,3.52082 -3.95046,3.73092 -4.92838,2.81221 -0.89269,-0.83863 -0.67874,-1.22388 2.25938,-4.06817 1.51645,-1.468 3.18995,-3.2498 3.71892,-3.95954 1.05553,-1.41628 1.82604,-1.73681 2.5658,-1.06734 0.38135,0.34512 0.40759,0.33275 0.53616,-0.25271 0.0743,-0.33858 0.24615,-0.90594 0.38181,-1.26081 0.13565,-0.35487 0.25276,-0.742 0.26022,-0.86029 0.008,-0.11829 0.14707,-0.65059 0.31022,-1.18289 0.16315,-0.53231 0.30833,-1.06461 0.32261,-1.1829 0.0142,-0.11829 0.1619,-0.65059 0.32803,-1.1829 0.16612,-0.5323 0.32463,-1.11299 0.35224,-1.29043 0.0952,-0.61181 0.2717,-1.29254 0.38102,-1.46942 0.0603,-0.0976 0.17526,-0.79286 0.25551,-1.54512 0.17638,-1.654 0.1501,-1.63759 -4.53716,2.83039 -1.65743,1.5799 -3.71341,3.39913 -4.56882,4.04273 -0.8554,0.6436 -1.5959,1.32107 -1.64551,1.5055 -0.11182,0.41562 -0.51775,2.29932 -0.65161,3.02373 -0.0546,0.29572 -0.13992,0.73124 -0.18952,0.96782 -0.13863,0.66114 -0.40965,2.10128 -0.4857,2.58087 -0.0375,0.23658 -0.11108,0.62371 -0.16347,0.86029 -0.12855,0.58027 -0.38061,2.40287 -0.46417,3.35601 -0.0374,0.42633 -0.13691,1.39416 -0.2212,2.15072 -0.0843,0.75656 -0.18195,1.88901 -0.21703,2.51656 -0.059,1.05611 -0.23189,2.61583 -0.43367,3.9132 -0.93187,5.99089 -0.17972,13.64903 1.60538,16.34547 0.19578,0.29572 0.48275,0.79066 0.63773,1.09986 0.15496,0.3092 0.51441,0.81308 0.79876,1.11974 0.28437,0.30666 0.51701,0.60944 0.51701,0.67285 0,0.44633 4.23541,4.68153 5.60256,5.60229 0.52643,0.35454 1.00929,0.71433 1.07306,0.79955 0.15339,0.20501 3.34759,1.6774 3.93833,1.81541 0.25424,0.0594 0.68856,0.14116 0.96516,0.1817 0.2766,0.0405 0.55069,0.1215 0.60911,0.17991 0.18812,0.18813 3.48149,0.10387 4.42566,-0.11322 z m -10.12423,-3.25298 c -0.83941,-0.89351 -0.64414,-1.26618 2.93369,-5.59905 1.87073,-2.2655 3.82426,-4.69979 4.34116,-5.40953 2.68887,-3.69197 3.65956,-4.36732 4.6942,-3.26599 0.62578,0.66611 0.5922,1.46121 -0.0887,2.09937 -0.30594,0.28677 -1.00555,1.15049 -1.55469,1.91937 -0.54914,0.76888 -2.16485,2.80131 -3.59045,4.51651 -1.42561,1.7152 -3.14969,3.82022 -3.83125,4.67782 -1.38765,1.74599 -2.03772,1.98362 -2.90401,1.0615 z m 12.69875,-3.64611 c -0.85207,-0.907 -0.52217,-1.59993 2.90554,-6.10275 1.72668,-2.26828 3.12871,-4.48289 3.58871,-5.6687 0.72935,-1.88008 1.91414,-2.47069 2.88444,-1.43787 0.98928,1.05305 -0.0271,3.33075 -3.67526,8.23642 -1.32923,1.78742 -2.75647,3.72307 -3.17162,4.30144 -0.91176,1.27022 -1.75837,1.49476 -2.53181,0.67146 z m -21.73178,-15.06516 c -0.85988,-0.91531 -0.65414,-1.30182 2.32831,-4.37368 1.53776,-1.58388 2.79593,-3.05452 2.79593,-3.26811 0,-1.12518 1.7334,-1.68801 2.54338,-0.82583 1.11655,1.18852 0.76942,1.79671 -3.49045,6.11569 -2.97904,3.02038 -3.35194,3.23034 -4.17717,2.35193 z m 7.62433,-34.07504 c 3.33624,-3.13836 3.95979,-3.5103 4.59729,-2.74217 0.44032,0.53054 0.61027,0.36848 0.43386,-0.41369 -0.23939,-1.0614 -1.6254,-2.91993 -2.17758,-2.91993 -0.0948,0 -0.40195,-0.22956 -0.68253,-0.51014 -0.86618,-0.86619 -1.39382,-1.06547 -1.54658,-0.58415 -0.0717,0.22599 -0.48955,0.68213 -0.92849,1.01364 -1.24079,0.9371 -1.97331,1.88059 -1.68438,2.16953 0.064,0.064 -0.0269,0.39344 -0.20199,0.73207 -0.17514,0.33864 -0.31586,0.6893 -0.31276,0.77926 0.003,0.0899 -0.17686,0.74425 -0.39991,1.45399 -0.40736,1.29625 -0.64926,2.22515 -0.65861,2.52934 -0.003,0.09 -0.15933,0.46189 -0.34788,0.82651 -0.18855,0.36462 -0.29069,0.71507 -0.22699,0.77878 0.0637,0.0637 0.009,0.32086 -0.12087,0.57146 -0.30572,0.5885 -0.0469,0.36449 4.25742,-3.6845 z m -39.384935,57.88131 c -2.6542,-0.25258 -7.6642,-2.29861 -10.3646,-4.23277 -7.0493,-5.04922 -12.9355,-13.51827 -14.0803,-20.25862 -1.4798,-8.71209 -2.3047,-25.65784 -1.4867,-30.54022 0.1387,-0.82803 0.3379,-2.0862 0.4427,-2.79594 0.2772,-1.87843 0.6437,-3.77532 0.8757,-4.53178 0.1114,-0.36326 0.2025,-0.97452 0.2025,-1.35834 0,-0.38382 0.1094,-0.90217 0.243,-1.1519 0.1337,-0.24973 0.3223,-0.99344 0.4192,-1.65267 0.3258,-2.21741 0.633,-3.77662 0.8294,-4.20962 0.1073,-0.23658 0.2485,-0.95504 0.3139,-1.59657 0.065,-0.64154 0.2181,-1.26579 0.3395,-1.38722 0.1215,-0.12143 0.2208,-0.48196 0.2208,-0.80116 0,-0.5686 1.2378,-5.80981 1.8236,-7.7214 0.3049,-0.9951 0.5014,-1.66869 1.1924,-4.08637 0.5058,-1.76986 1.4517,-4.37625 2.3415,-6.45216 1.2005,-2.80085 1.019,-3.49573 -1.2038,-4.60887 -1.8614,-0.93214 -3.4966,-2.09631 -4.5936,-3.27035 -8.7633,-9.37892 -3.731,-25.68027 6.5088,-21.08425 0.4398,0.19739 0.8443,0.35889 0.8989,0.35889 0.1595,0 2.5726,1.63302 3.2273,2.18407 0.3295,0.27738 1.3885,1.20272 2.3532,2.05631 4.0412,3.57567 4.796,3.21706 7.5675,-3.59516 2.1872,-5.37626 4.1638,-9.22142 5.2416,-10.19676 0.2482,-0.22464 0.4513,-0.51512 0.4513,-0.64552 0,-0.64211 3.525,-4.24245 4.7811,-4.88326 1.9979,-1.01926 5.75739,-0.27871 5.75739,1.13411 0,0.11567 0.24195,0.52753 0.53768,0.91524 0.29572,0.38772 0.53768,0.84581 0.53768,1.018 0,0.17218 0.0896,0.405 0.19909,0.51738 0.62627,0.64267 0.65304,8.58466 0.0329,9.74347 -0.12758,0.23838 -0.23196,0.66924 -0.23196,0.95746 0,0.77119 -1.0808,4.38538 -2.32789,7.7845 -0.35919,0.97902 -0.53939,1.88157 -0.51519,2.58087 0.023,0.65443 -0.1607,1.6553 -0.4682,2.55695 -1.0696,3.1361 0.4884,5.23563 7.07504,9.53375 0.94632,0.61752 1.96253,1.29378 2.25826,1.50279 0.29573,0.20901 1.38356,0.93548 2.41741,1.61439 2.05445,1.34911 5.13302,4.32676 5.775545,5.58619 0.22325,0.43758 0.6509,1.15664 0.95034,1.5979 1.17851,1.73664 1.70075,6.42822 0.89059,8.00071 -0.16369,0.31773 -0.49421,1.0132 -0.73447,1.54551 -1.603705,3.55289 -5.035745,5.67765 -9.191885,5.69066 -2.70162,0.008 -3.12633,-0.056 -5.80694,-0.88152 -2.77707,-0.85521 -5.87059,-2.73064 -8.28739,-5.02422 -6.4654,-6.13582 -9.001,-3.88794 -12.1301,10.7536 -0.316,1.47862 -0.6676,3.12392 -0.7814,3.65623 -0.3059,1.43103 -0.9915,5.83677 -1.2719,8.17273 -0.1348,1.12375 -0.3857,3.15618 -0.5575,4.51651 -0.3564,2.82316 -0.4193,10.68764 -0.097,12.09472 0.1157,0.50442 0.4021,1.78964 0.6366,2.85604 0.7201,3.27533 2.2994,6.58023 4.1608,8.70716 1.6768,1.91606 2.2331,2.45325 4.5875,4.43032 13.10225,11.00203 11.90432,26.21954 -1.9601,24.90019 z m 4.9776,-4.10156 c 3.8199,-1.92698 4.6624,-7.06032 1.8742,-11.41901 -1.2465,-1.94861 -6.7988,-7.20187 -6.9252,-6.5522 -0.1056,0.54313 -1.7787,2.22322 -4.013,4.02986 -1.0646,0.86084 -2.801,2.35102 -3.8587,3.31152 -2.0393,1.85202 -2.4838,2.02536 -3.2785,1.27872 -1.1067,-1.03964 0.5107,-2.98042 6.3845,-7.66101 0.7689,-0.61269 1.6682,-1.45395 1.9986,-1.86947 0.3303,-0.41552 0.7844,-0.75549 1.0091,-0.75549 0.3244,0 0.2228,-0.18929 -0.4931,-0.91906 -7.5032,-7.64869 -9.2407,-16.16237 -6.9229,-33.9226 0.1775,-1.36033 0.3727,-2.86045 0.4338,-3.33361 0.1231,-0.9532 0.653,-3.79687 0.9724,-5.21858 0.4449,-1.97968 0.3429,-1.90991 -4.8004,3.28263 -5.3328,5.38376 -5.5381,5.5278 -6.5397,4.58686 -0.8864,-0.83274 -0.6833,-1.15656 3.2122,-5.12084 2.0405,-2.07653 4.2725,-4.42691 4.96,-5.22307 1.6122,-1.86692 3.3493,-1.84554 3.3843,0.0417 0.015,0.8049 0.5465,-0.84255 0.7206,-2.23328 0.073,-0.58667 0.2294,-1.16253 0.3466,-1.27968 0.1171,-0.11716 0.213,-0.5384 0.213,-0.9361 0,-0.39771 0.14,-1.1768 0.3112,-1.73133 0.1712,-0.55453 0.571,-1.86826 0.8885,-2.9194 1.506,-4.98584 4.3092,-7.87863 7.6316,-7.87568 1.8209,0.002 2.708,0.50893 6.7005,3.83165 2.9875,2.48629 6.87986,4.55678 8.56699,4.55712 0.30164,5e-5 0.65373,0.1054 0.78243,0.2341 1.02886,1.02885 6.3451,-0.003 8.30952,-1.61245 4.722755,-3.86994 2.698515,-9.35362 -5.44551,-14.75195 -2.26819,-1.50348 -3.55684,-2.42984 -3.62134,-2.60324 -0.0394,-0.10598 -0.17614,-0.19269 -0.30379,-0.19269 -0.31603,0 -2.28733,-1.24411 -2.99636,-1.89102 -0.5759,-0.52545 -0.5759,-0.52545 -2.17374,0.95162 -1.8361,1.69728 -10.483,7.8217 -11.0433,7.8217 -0.5853,0 -1.3696,-0.86933 -1.3696,-1.51797 0,-0.77455 0.7076,-1.37585 5.8063,-4.93419 6.1153,-4.26783 6.3522,-4.50617 5.4713,-5.50465 -1.3084,-1.48292 -1.8929,-3.0558 -1.9369,-5.21235 -0.023,-1.13872 -0.1451,-2.11078 -0.2819,-2.2475 -0.3903,-0.39035 -0.2883,-0.94054 0.6016,-3.24369 0.4633,-1.19926 0.9131,-2.37403 0.9996,-2.61061 1.1732,-3.21103 1.4372,-3.9816 1.5844,-4.62404 0.095,-0.41402 0.3753,-1.52932 0.6234,-2.47845 0.41247,-1.57844 0.89068,-4.83993 0.89501,-6.104 0.002,-0.48749 -0.0209,-0.49677 -0.39154,-0.1613 -0.21632,0.19577 -0.45057,0.35594 -0.52067,0.35594 -0.07,0 -2.5203,1.79047 -5.4451,3.97883 -3.8814,2.90416 -5.4772,3.97883 -5.9082,3.97883 -0.4635,0 -0.6221,0.12605 -0.7376,0.5865 -1.4278,5.68865 -5.2384,9.58555 -7.9646,8.14492 -0.3549,-0.18753 -0.7246,-0.34156 -0.8216,-0.34229 -0.29,-0.002 -1.9047,-1.17426 -3.1071,-2.25535 -0.8471,-0.76159 -1.1255,-0.91679 -1.1255,-0.62737 0,0.63792 -1.0769,1.59097 -1.7977,1.59097 -0.353,0 -0.7946,0.13528 -0.9813,0.30062 -2.707,2.39672 -5.8163,3.85489 -6.6166,3.10304 -1.0791,-1.01379 -0.3741,-1.94396 3.338,-4.40398 2.9969,-1.98603 3.0322,-2.00369 4.0144,-2.00897 0.8603,-0.005 0.8603,-0.005 -0.6387,-0.97099 -0.8245,-0.53151 -1.652,-0.96638 -1.8389,-0.96638 -0.1869,0 -0.4422,-0.10235 -0.5673,-0.22745 -0.4379,-0.43791 -2.5595,-0.50223 -3.5552,-0.10778 -4.2185,1.67116 -4.6153,9.50562 -0.7289,14.39469 0.8878,1.1169 3.698,3.19558 5.2779,3.90405 1.2141,0.54441 2.3153,1.82763 3.0024,3.49869 0.5148,1.25191 -0.055,4.0385 -1.4754,7.21697 -0.7086,1.58549 -1.543,4.18644 -2.8047,8.74336 -0.2457,0.88717 -0.5862,2.09695 -0.7567,2.6884 -1.2852,4.45721 -4.5439,20.82376 -5.0688,25.45767 -0.3165,2.79315 -0.079,12.11162 0.4533,17.77179 0.5866,6.2406 0.9994,9.08819 1.6509,11.387 1.536,5.41982 4.6952,10.09403 9.4159,13.9314 2.7441,2.23068 7.3986,5.11429 8.2551,5.11429 0.1167,0 0.4847,0.11621 0.8177,0.25824 2.6285,1.12112 5.9976,1.22175 7.9488,0.23743 z m -7.8436,-3.57431 c -0.9598,-1.02174 -0.7254,-1.39719 2.5972,-4.15932 2.5384,-2.11021 3.0769,-2.65864 3.1357,-3.19303 0.2552,-2.319 3.0476,-2.00608 3.0476,0.34151 0,2.28271 -7.5551,8.31516 -8.7805,7.01084 z m -13.3344,-10.96867 c -0.8503,-0.90508 -0.654,-1.22274 2.7584,-4.46309 1.7743,-1.68489 3.2261,-3.22514 3.2261,-3.42277 0,-1.22309 1.8113,-1.65255 2.6693,-0.63289 0.9074,1.07847 0.767,1.39881 -1.6477,3.75823 -5.8227,5.68937 -6.0124,5.81827 -7.0061,4.76052 z m -3.0111,-5.16173 c -0.9028,-0.96099 -0.7209,-1.24734 3.565,-5.61169 4.2726,-4.35088 4.6574,-4.61124 5.5605,-3.7628 1.0309,0.96847 0.8375,1.27425 -3.6269,5.7342 -4.3527,4.34846 -4.649,4.54461 -5.4986,3.64029 z m -0.6629,-9.91217 c -0.7745,-0.82447 -0.5321,-1.20967 3.0538,-4.85184 3.6849,-3.74274 4.0943,-3.98146 5.0617,-2.9517 0.8085,0.86064 0.6178,1.45873 -0.8766,2.74923 -0.7393,0.63844 -2.3383,2.15308 -3.5534,3.36587 -2.3895,2.38499 -2.8381,2.59048 -3.6855,1.68844 z m -3.2083,-12.02517 c -0.8733,-0.92953 -0.7169,-1.1398 4.6071,-6.19243 5.3803,-5.10618 5.7387,-5.34651 6.669,-4.47249 0.9427,0.8856 0.7138,1.47644 -1.2537,3.23601 -0.9729,0.87014 -3.2705,3.0096 -5.1057,4.75437 -3.5902,3.41339 -4.0088,3.64106 -4.9167,2.67454 z m 5.3768,-26.45385 c -0.9037,-0.96195 -0.6786,-1.39368 2.167,-4.15566 1.449,-1.40649 3.7618,-3.74153 5.1394,-5.18899 2.7023,-2.83931 3.1376,-3.0705 4.0174,-2.13398 0.96,1.02191 0.8233,1.21741 -4.7383,6.7746 -5.4728,5.46854 -5.7089,5.63716 -6.5855,4.70403 z m 32.67444,-7.7601 c -1.11068,-1.18227 -0.85128,-1.48135 5.00364,-5.76884 2.09625,-1.53507 3.14806,-2.43873 3.14806,-2.70468 0,-1.25847 1.79568,-1.71117 2.66928,-0.67294 1.20029,1.42647 0.70763,2.1174 -4.06725,5.70399 -5.69709,4.2793 -5.87998,4.37253 -6.75373,3.44247 z m -6.86584,-5.78944 c -1.0424,-1.10963 -0.5907,-1.7755 2.9749,-4.38447 1.1245,-0.82283 2.72142,-2.18894 3.54869,-3.03579 1.6624,-1.70178 2.27056,-1.90861 3.07966,-1.04736 1.09611,1.16677 -0.59285,3.2228 -5.83195,7.09943 -2.7133,2.00768 -3.0543,2.13138 -3.7713,1.36819 z m -22.7976,-1.93564 c -0.9794,-1.04249 -0.6284,-1.47101 5.7694,-7.04275 1.9518,-1.69978 4.4755,-3.91939 5.6082,-4.93247 5.9024,-5.2788 6.5295,-5.67025 7.4737,-4.66514 0.9305,0.99046 0.4894,1.85222 -1.7906,3.49833 -0.4732,0.34161 -2.1185,1.73935 -3.6562,3.1061 -12.7732,11.35258 -12.4176,11.08642 -13.4045,10.03593 z m 7.0973,-15.91533 c -1.0181,-1.08372 -0.6384,-1.52976 5.5464,-6.51652 4.0415,-3.25864 6.2642,-5.31802 7.9239,-7.34176 1.0419,-1.27049 1.624,-1.42555 2.3701,-0.63136 1.3947,1.48465 -0.6689,3.83244 -10.1321,11.5274 -4.4821,3.6446 -4.8755,3.84871 -5.7083,2.96224 z m -10.5385,-0.21507 c -0.9932,-1.05728 -0.5563,-1.62411 3.3301,-4.31983 1.3199,-0.91551 2.5689,-1.85138 2.7755,-2.0797 0.8059,-0.89051 2.4598,-0.1231 2.4598,1.14136 0,1.76335 -7.5147,6.37654 -8.5654,5.25817 z m 28.428,-26.53825 c 1.1055,-0.85379 1.6538,-1.13841 2.1933,-1.13841 1.61791,0 -0.021,-1.91272 -1.6924,-1.97557 -1.4546,-0.0547 -3.5693,1.68664 -5.5335,4.55644 -1.2908,1.88588 -2.3558,3.6795 -2.3558,3.96749 0,0.11277 4.5782,-3.2395 7.3884,-5.40995 z M -160.6934,-402.9042 c -4.3091,-1.83806 -8.8515,-7.10409 -12.6325,-14.64485 -0.5005,-0.99828 -1.5247,-2.88979 -2.2759,-4.20335 -0.7512,-1.31356 -1.3659,-2.44208 -1.3659,-2.50784 0,-0.0657 -0.3871,-0.80272 -0.8603,-1.63771 -0.4731,-0.83499 -0.8603,-1.67065 -0.8603,-1.85703 0,-0.29098 -0.9775,0.35428 -3.628,2.39475 -0.044,0.0336 -0.1637,1.29967 -0.2668,2.81352 -0.8772,12.87976 -3.7814,18.32453 -9.5281,17.86324 -6.927,-0.55603 -9.2236,-10.5334 -6.5724,-28.55278 0.363,-2.46747 0.6367,-8.34848 0.6406,-13.76461 0,-5.66558 0.8876,-19.14279 1.7201,-26.23878 0.2429,-2.07007 0.5358,-4.68319 0.651,-5.80694 1.7709,-17.28048 5.8577,-24.0297 12.5747,-20.76668 4.6215,2.24511 5.7934,5.52834 5.6198,15.74516 -0.4083,24.02248 -0.5522,26.90604 -1.6295,32.65827 -0.5197,2.77512 -0.949,6.00546 -0.8411,6.32928 0.046,0.13939 0.5626,-0.40503 1.147,-1.20981 8.866,-12.21052 13.9509,-16.58602 19.5342,-16.80895 11.775,-0.47014 7.3517,14.43524 -7.9142,26.66852 -1.5961,1.27905 -1.6132,1.22579 1.5457,4.82345 8.2862,9.43725 14.3028,18.97978 14.4414,22.90461 0.1849,5.23409 -4.3431,7.99802 -9.4995,5.79853 z m 4.9935,-2.6115 c 1.8317,-0.63854 1.9742,-3.12261 0.3689,-6.42842 -1.6573,-3.41279 -1.5034,-3.25365 -2.0666,-2.13697 -1.242,2.46301 -3.2736,4.9329 -4.0575,4.9329 -1.8426,0 -1.857,-1.21793 -0.047,-3.9646 1.3719,-2.08161 1.4771,-2.32265 1.3682,-3.13494 -0.1003,-0.74737 -0.033,-0.9692 0.4495,-1.47237 0.5676,-0.59243 0.5676,-0.59243 -0.8054,-2.57541 -0.7649,-1.10479 -1.4204,-1.8615 -1.4801,-1.70868 -0.1637,0.41903 -2.943,4.28224 -3.5627,4.95211 -1.875,2.02671 -3.3013,-0.3753 -1.5772,-2.65633 1.7131,-2.26665 2.1858,-3.13014 2.1858,-3.99277 0,-0.49247 0.1593,-0.96656 0.417,-1.24094 0.4154,-0.4423 0.4118,-0.45029 -0.9233,-2.08516 -1.3403,-1.64115 -1.3403,-1.64115 -1.7826,-0.96782 -2.0126,3.06387 -3.4921,4.08023 -4.5257,3.10917 -0.7094,-0.66646 -0.6215,-1.21882 0.3884,-2.43978 2.1045,-2.54432 2.5431,-3.66748 1.8483,-4.73356 -1.6992,-2.60743 -1.2965,-4.54697 1.4943,-7.19807 7.8821,-7.48768 11.4753,-12.39884 12.3451,-16.87367 1.0116,-5.20412 -4.8548,-5.20532 -11.3577,-0.002 -2.6238,2.09929 -7.2443,8.07975 -12.8265,16.6018 -1.0638,1.62405 -3.1631,1.59366 -3.4083,-0.0493 -0.2623,-1.7571 0.4455,-9.61668 1.1525,-12.79679 0.8315,-3.74039 1.0852,-6.9136 1.2811,-16.02286 0.1094,-5.08645 0.2579,-10.68401 0.33,-12.43902 0.091,-2.21933 0.058,-3.26385 -0.1084,-3.4304 -0.2893,-0.28926 -0.3182,-1.36983 -0.041,-1.54098 0.2802,-0.17317 0.525,-2.75325 0.3499,-3.68694 -0.1465,-0.78064 -0.1465,-0.78064 -0.63,-0.32641 -0.2659,0.24983 -0.5846,0.45423 -0.7082,0.45423 -0.1236,0 -1.2303,0.831 -2.4595,1.84667 -1.2291,1.01567 -2.9858,2.46741 -3.9038,3.22608 -1.8249,1.50831 -2.1449,1.60933 -2.8874,0.91178 -1.1858,-1.114 -0.8654,-1.53094 4.664,-6.06972 3.6919,-3.03053 4.4787,-3.4262 5.166,-2.59801 0.4895,0.58977 0.4482,0.18711 -0.1451,-1.41328 -1.6246,-4.38303 -6.2134,-5.20324 -7.9965,-1.42932 -1.42,3.00547 -2.2826,6.60747 -3.0228,12.62318 -0.7392,6.00717 -1.1428,9.8694 -1.058,10.12395 0.1315,0.39451 7.4865,-7.27789 7.4865,-7.80959 0,-1.32433 1.678,-1.86348 2.6482,-0.85086 1.1875,1.23947 1.0096,1.51615 -4.7982,7.46198 -1.8488,1.89264 -3.8267,3.99765 -4.3955,4.67782 -0.5688,0.68017 -1.1677,1.23666 -1.3307,1.23666 -0.1631,0 -0.297,0.16937 -0.2975,0.37638 0,0.20701 -0.2377,3.76376 -0.5271,7.9039 -1.0971,15.69862 -1.0232,17.43463 0.6647,15.60757 2.336,-2.52865 4.81,-5.47361 4.81,-5.72564 0,-0.37663 1.1734,-1.38659 1.611,-1.38659 1.6588,0 1.8108,1.88625 0.2999,3.71941 -4.7956,5.81817 -7.0484,7.83266 -7.856,7.02504 -0.1556,-0.15557 -0.2662,0.68394 -0.3614,2.74217 -0.075,1.63151 -0.2844,4.07323 -0.4641,5.42604 -0.1797,1.35281 -0.3267,2.59743 -0.3267,2.76583 0,0.58399 5.9894,-7.38989 6.376,-8.48852 0.6742,-1.91607 3.5173,-2.29581 3.5173,-0.46978 0,0.98582 -4.9353,8.05458 -7.5991,10.88396 -0.7336,0.77922 -1.6242,0.92451 -2.1064,0.3436 -0.5323,-0.64147 -1.1576,8.28553 -0.6981,9.968 0.2787,1.02056 4.5642,-5.08801 4.9191,-7.01167 0.4603,-2.49524 3.3863,-2.19105 3.0426,0.31632 -0.2082,1.51883 -2.4046,5.19521 -5.4206,9.073 -0.5652,0.7267 -1.4852,0.94351 -1.9655,0.46319 -0.4203,-0.42028 0.2375,2.40511 0.8709,3.74053 0.9595,2.0231 2.9459,2.89508 5.0026,2.19598 1.3004,-0.44202 1.5956,-0.79493 2.3574,-2.81894 0.7009,-1.86209 0.659,-1.92998 -0.2521,-0.40845 -1.4,2.33805 -2.1951,2.77684 -3.2449,1.79062 -1.1771,-1.10579 2.6082,-7.49003 4.4408,-7.49003 0.5556,0 0.6031,-0.0731 0.7332,-1.12913 1.0526,-8.54086 1.682,-10.02558 4.806,-11.33692 2.949,-1.23788 5.0201,-0.47747 6.4216,2.35767 0.3216,0.65059 1.1377,2.15072 1.8136,3.33361 0.6758,1.1829 1.8863,3.40889 2.6899,4.94666 0.8035,1.53776 1.8374,3.51533 2.2974,4.3946 3.2093,6.13436 8.7648,10.07842 12.4075,8.80859 z m -26.177,-28.21832 c -0.7427,-0.79061 -0.5845,-1.188 1.4662,-3.68216 1.0635,-1.2935 2.36,-2.9872 2.8811,-3.76376 1.687,-2.51409 3.2032,-3.35262 4.1806,-2.31214 0.6847,0.72881 0.5987,1.49333 -0.252,2.24023 -0.3958,0.34752 -1.1371,1.20439 -1.6475,1.90416 -3.9006,5.34835 -5.5585,6.75247 -6.6284,5.61367 z m 13.1194,-14.6249 c -0.7824,-0.83286 -0.601,-1.34776 1.1025,-3.12938 0.8636,-0.90316 2.3272,-2.48895 3.2525,-3.52399 1.8551,-2.075 2.4357,-2.31759 3.3126,-1.3841 0.8414,0.89561 0.6384,1.29348 -2.1978,4.30603 -1.466,1.55718 -2.9263,3.14579 -3.2452,3.53023 -0.7049,0.84996 -1.5438,0.92583 -2.2246,0.20121 z m -24.7332,-6.02201 c -0.8105,-0.86264 -0.6154,-1.18399 3.4241,-5.64006 4.3849,-4.83707 5.1412,-5.82484 5.1412,-6.71398 0,-1.46207 1.7101,-2.03627 2.6693,-0.89629 1.1136,1.3234 0.5177,2.60085 -3.0023,6.43565 -1.0315,1.12375 -2.9395,3.22877 -4.2401,4.67782 -2.5783,2.87269 -3.0592,3.13008 -3.9922,2.13686 z m -55.411,47.0422 c -9.6659,-1.50202 -12.53419,-8.38479 -6.1432,-14.74116 2.6144,-2.60018 4.4459,-3.44633 9.6843,-4.4741 6.6123,-1.29731 7.9595,-2.25164 8.9777,-6.35965 0.7721,-3.11489 0.4497,-5.46047 -2.1851,-15.89955 -4.3189,-17.11193 -3.0748,-26.38013 4.4501,-33.14958 8.7296,-7.85325 26.0777,-6.91603 34.7211,1.8758 5.6467,5.74363 -2.0233,14.48042 -8.6277,9.82771 -7.1332,-5.0252 -16.6114,-2.15915 -18.9496,5.73004 -0.9098,3.06986 -0.2737,6.76342 2.3706,13.7646 8.0643,21.35158 7.1812,31.92014 -3.3136,39.65833 -4.6752,3.44714 -13.1986,4.97743 -20.9846,3.76756 z m 9.5631,-2.88662 c 9.1701,-1.15742 14.347,-5.38712 16.5817,-13.54773 0.442,-1.61416 0.8432,-7.0167 0.4276,-5.75842 -0.5181,1.56852 -3.9381,5.7646 -8.5937,10.54377 -1.5548,1.59605 -2.1203,1.78338 -2.9711,0.9841 -0.8245,-0.77452 -0.6198,-1.15541 2.3293,-4.3347 4.1817,-4.50807 6.2059,-7.19373 6.2059,-8.23396 0,-1.16228 1.6302,-1.73534 2.5307,-0.88962 0.5153,0.48392 0.5153,0.48392 0.4014,-0.0538 -0.063,-0.29573 -0.2209,-1.21516 -0.3517,-2.04319 -0.5429,-3.43622 -2.4471,-10.08068 -4.1914,-14.62489 -1.1478,-2.99026 -2.4209,-6.69032 -2.6806,-7.7909 -0.2652,-1.12365 -0.2652,-1.12365 -1.4487,0.53768 -2.2133,3.10695 -3.0034,3.60815 -4.0854,2.59168 -0.7296,-0.68548 -0.627,-1.1132 0.6852,-2.85671 0.8778,-1.16642 1.1829,-1.75489 1.1829,-2.28213 0,-1.37914 1.6309,-2.24304 2.5922,-1.37309 0.345,0.31226 0.3674,0.18178 0.361,-2.10571 -0.027,-9.64985 8.0337,-16.07631 17.3173,-13.8068 0.5226,0.12776 0.5914,0.0838 0.5914,-0.37793 0,-0.85458 1.0316,-1.56796 3.6563,-2.52833 5.639,-2.06337 5.365,-1.71469 2.5249,-3.21295 -6.425,-3.38949 -16.2448,-3.73758 -22.0965,-0.78327 -3.7215,1.87882 -4.716,2.72315 -6.5078,5.52519 -4.067,6.35965 -4.2037,12.72689 -0.5883,27.38791 1.0502,4.25842 1.9444,7.93615 1.9872,8.17273 0.098,0.54235 1.7118,-1.85698 2.7483,-4.08637 1.1638,-2.50312 1.9775,-3.03024 2.9991,-1.94276 0.5638,0.60004 0.5236,2.42456 -0.068,3.10139 -0.1668,0.19078 -0.4739,0.68562 -0.6825,1.09963 -0.5759,1.14334 -3.2857,5.18426 -3.9662,5.91448 -0.5526,0.59305 -0.6108,0.81909 -0.7193,2.79594 -0.19,3.46039 -1.0259,5.35297 -3.246,7.34905 -1.9442,1.74793 -3.3543,2.32689 -8.0866,3.32004 -7.8914,1.65613 -11.0451,4.17634 -10.6944,8.546 0.2993,3.72845 7.3279,5.84004 15.8561,4.76363 z m -7.2749,-1.7864 c -0.7973,-0.84865 -0.5988,-1.15569 3.3499,-5.18114 2.0996,-2.14049 3.9583,-4.18214 4.1303,-4.53701 0.8036,-1.65751 2.0398,-2.11964 2.9833,-1.11527 1.0314,1.09788 0.5988,1.73371 -5.1118,7.51366 -4.0578,4.10716 -4.408,4.32434 -5.3517,3.31976 z m 10.3234,-54.84336 c -0.9257,-0.98543 -0.7001,-1.37537 2.4359,-4.21019 1.5969,-1.44354 2.9034,-2.74839 2.9034,-2.89967 0,-1.10453 1.7806,-1.51272 2.6482,-0.6071 0.9219,0.96225 0.7735,1.29187 -1.6266,3.612 -4.8032,4.64331 -5.4581,5.06594 -6.3609,4.10496 z m 11.1838,-8.81795 c -1.2056,-1.28332 -0.6024,-1.87636 7.4137,-7.28818 1.1283,-0.76175 1.7786,-0.7614 2.5094,10e-4 0.9353,0.97623 0.434,2.62287 -0.7984,2.62287 -0.2095,0 -2.0375,1.16139 -4.0624,2.58086 -3.8642,2.70893 -4.3043,2.89 -5.0623,2.08309 z m 22.9638,2.89621 c 1.8664,-0.6832 2.3978,-2.8578 1.1725,-4.79881 -0.5509,-0.87263 -0.5509,-0.87263 -1.1249,-0.33515 -0.7743,0.72512 -1.9775,1.30583 -4.8024,2.31779 -3.1761,1.13775 -3.1916,1.14867 -2.0754,1.46414 1.4373,0.40618 2.5882,0.92926 3.2778,1.48973 0.7104,0.57744 1.7039,0.53893 3.5524,-0.1377 z m 187.932695,60.49768 c -2.159,-0.5233 -3.1102,-1.1323 -7.3282,-4.6922 -1.9354,-1.63338 -4.2058,-2.89698 -7.1376,-3.97232 -1.4975,-0.54929 -1.5363,-0.55187 -7.3335,-0.48956 -19.5865,0.21055 -32.608096,-9.36975 -34.166996,-25.13746 -0.8706,-8.80637 6.9182,-22.03464 15.154196,-25.73714 9.2356,-4.15187 16.3669,-4.69886 27.9825,-2.14632 1.2061,0.26502 1.2061,0.26502 2.0432,-0.47001 8.5475,-7.50499 15.9200002,4.25406 11.911,18.99784 -2.2129,8.13856 -2.5814,10.25271 -2.5752,14.77772 0.01,5.99885 1.6766,8.76331 6.9865002,11.57628 9.7915,5.18707 11.4308,12.04213 3.928,16.42533 -1.9874,1.16103 -6.5341002,1.57796 -9.4639002,0.86784 z m 7.5791002,-3.41784 c 3.2255,-1.36324 4.1266,-3.02536 3.0704,-5.66367 -0.7498,-1.87283 -1.4041,-2.46348 -5.2933,-4.77773 -10.3463002,-6.15663 -12.2944002,-13.05734 -7.9236002,-28.06736 3.4064,-11.69816 2.3544,-18.86338 -2.8484,-19.40036 -1.8892,-0.19498 -3.9958,0.83466 -3.9958,1.95301 0,1.28032 -1.5455,1.77308 -2.7293,0.87016 -0.6089,-0.46445 -4.1593,-1.35473 -5.4972,-1.37846 -0.089,-10e-4 -0.1613,0.27294 -0.1613,0.61003 0,0.50488 -0.3506,0.91794 -1.9894,2.34386 -3.9389,3.42715 -4.506,3.71876 -5.4705,2.81271 -1.0304,-0.96805 -0.8584,-1.2108 3.3514,-4.72943 1.9491,-1.62907 1.8935,-1.67483 -2.2361,-1.84112 -4.3996,-0.17717 -8.0123,0.47932 -7.2286,1.31354 1.0439,1.11118 -0.6246,3.14664 -8.0186,9.78255 -3.0569,2.74352 -3.3484,2.89398 -4.1492,2.14169 -0.9565,-0.89857 -0.705,-1.46366 1.5797,-3.54988 1.1426,-1.04333 2.9228,-2.67123 3.956,-3.61755 1.7586,-1.61065 4.8731,-4.83911 4.6683,-4.83911 -0.9893,0 -7.2258,2.66885 -9.1085,3.89783 -4.870696,3.17964 -9.303196,11.05712 -10.403696,18.4894 -0.42,2.83701 0.9255,8.11342 2.9567,11.59414 0.2416,0.41401 0.6655,1.15728 0.942,1.65171 2.59,4.63118 6.787996,7.66418 14.052296,10.15261 3.5885,1.22925 12.6007,2.15428 13.1011,1.34472 0.092,-0.14961 0.7941,-0.24214 1.8053,-0.23808 5.6628,0.0227 9.8973,1.72187 14.7735,5.92798 4.5137,3.89344 8.7037,4.94671 12.7968002,3.21681 z m -4.2544002,-1.68142 c -0.7029,-0.74812 -0.6018,-1.14026 0.7057,-2.73843 0.8401002,-1.02681 1.1829002,-1.62983 1.1829002,-2.08066 0,-1.55146 1.9023,-2.29601 2.8844,-1.12892 1.6362,1.94459 -3.049,7.78319 -4.7730002,5.94801 z m -5.1713,-4.31156 c -0.7025,-0.74783 -0.58,-1.20224 0.7163,-2.65526 0.8592,-0.96322 1.1819,-1.49608 1.1819,-1.95192 0,-2.17706 2.8715,-1.9051 3.1513,0.29846 0.2522,1.98526 -3.9021,5.53005 -5.0495,4.30872 z m -10.7536,-3.01101 c -0.909,-0.96757 -0.6852,-1.3671 2.2746,-4.06039 5.0868,-4.62893 5.7181,-5.00463 6.6835,-3.97709 0.9811,1.0444 0.6348,1.65121 -2.1133,3.70279 -0.7688,0.57401 -2.2968,1.89613 -3.3955,2.93806 -2.1566,2.04521 -2.6516,2.24567 -3.4493,1.39663 z m -17.0071,-2.16823 c -0.7746,-0.8245 -0.5444,-1.55872 0.8392,-2.6767 1.8399,-1.48666 2.5971,-2.20585 3.8388,-3.64628 1.2961,-1.50338 1.9738,-1.70656 2.791,-0.8367 0.9199,0.97921 0.4425,1.85648 -2.4849,4.56603 -3.5749,3.30886 -4.0701,3.56655 -4.9841,2.59365 z m -7.5111,-3.63871 c -0.8229,-0.87592 -0.6225,-1.26866 1.7369,-3.40465 1.2124,-1.09767 2.2662,-2.14796 2.3417,-2.33399 0.076,-0.18602 0.2977,-0.4714 0.4938,-0.63417 0.3191,-0.26481 0.2186,-0.36974 -0.9553,-0.99696 -10.219,-5.4599 -11.2478,-16.84174 -2.1921,-24.25052 4.7919,-3.92043 15.2701,-4.58936 19.1078,-1.21985 0.4052,0.35583 0.8618,0.64697 1.0145,0.64697 0.9622,0 2.8297,4.12328 3.2537,7.1842 0.1516,1.09363 6.4966,-4.51956 6.8866,-6.09229 0.3498,-1.41016 1.7704,-1.95949 2.649,-1.02428 1.1602,1.23501 0.8285,1.77881 -4.1235,6.7609 -3.6662,3.6884 -4.1917,4.14014 -4.8162,4.14014 -0.6196,0 -0.702,0.0688 -0.7087,0.59145 -0.1108,8.54744 -9.0356,16.07879 -17.2353,14.54429 -0.495,-0.0926 -0.5589,-0.0465 -0.4597,0.33255 0.2449,0.93641 -0.1957,1.55022 -2.7859,3.88159 -2.8425,2.5585 -3.3517,2.78535 -4.2073,1.87462 z m 13.1188,-9.28656 c 8.7911,-2.54478 12.0218,-19.10827 4.2646,-21.86374 -11.3101,-4.01748 -22.647,5.94647 -17.9727,15.79608 2.24,4.72006 8.6152,7.54192 13.7081,6.06766 z m 5.5925,7.13584 c -0.8172,-0.86982 -0.6267,-1.15466 3.78,-5.6515 2.3362,-2.38401 4.5234,-4.68562 4.8603,-5.11467 0.7333,-0.93377 1.5457,-1.03555 2.2534,-0.28232 1.0469,1.11441 0.6866,1.6363 -4.8354,7.00334 -4.9157,4.77782 -5.1949,4.96424 -6.0583,4.04515 z m -28.389496,-1.72058 c -0.9212,-0.98051 -0.6813,-1.43977 1.969696,-3.77198 1.3405,-1.17932 2.8496,-2.63672 3.3536,-3.23867 1.0509,-1.2552 1.7809,-1.42537 2.5594,-0.59668 0.8809,0.9377 0.6579,1.40036 -1.8444,3.82627 -4.486096,4.34915 -5.127396,4.7507 -6.038296,3.78106 z m -3.011,-10.7536 c -0.7902,-0.84114 -0.5969,-1.20987 1.9519,-3.72344 3.380096,-3.33335 4.052396,-3.67719 5.070496,-2.59346 0.7763,0.82635 0.2589,2.51323 -0.7708,2.51323 -0.1336,0 -1.2605,0.96783 -2.504296,2.15072 -2.4382,2.31875 -2.9215,2.53197 -3.7473,1.65295 z m 36.786496,-19.56177 c -0.8803,-0.93701 -0.6596,-1.45634 1.4588,-3.43309 1.1969,-1.1169 1.9356,-1.97125 1.9356,-2.23868 0,-1.27685 1.8892,-1.78128 2.8633,-0.76454 1.0463,1.09215 0.8637,1.45958 -2.1235,4.27276 -2.8799,2.71212 -3.3753,2.97138 -4.1342,2.16355 z m 197.514925,47.24099 c -19.78492,-3.08387 -33.66644,-17.59271 -33.18541,-34.68507 0.4969,-17.65556 8.68149,-29.05265 23.74504,-33.06508 12.93337,-3.44503 19.12201,-1.87108 30.72118,7.81328 20.65706,17.24695 24.76825,32.64159 12.56769,47.06057 -6.37284,7.5316 -12.68469,11.06255 -22.86546,12.79132 -3.02191,0.51314 -7.9895,0.55158 -10.98304,0.085 z m 10.09036,-3.08916 c 10.51592,-1.73509 17.47621,-5.77534 22.79382,-13.23115 7.24386,-10.15663 6.27169,-19.45869 -3.28539,-31.4358 -2.49613,-3.12819 -4.97135,-5.6683 -4.98232,-5.11293 -0.01,0.50046 -3.40936,3.91318 -5.54754,5.56915 -1.34489,1.04157 -1.34489,1.04157 -0.89681,1.70829 3.19253,4.75032 3.82875,10.16816 1.8206,15.50334 -0.30071,0.79889 -0.54673,1.4887 -0.54673,1.53292 0,0.2118 9.24779,-7.25018 10.09184,-8.14304 0.53117,-0.56188 1.07926,-1.02159 1.218,-1.02159 0.13872,0 0.6091,-0.43552 1.04529,-0.96783 0.90855,-1.10876 1.61401,-1.25474 2.4172,-0.50019 1.34594,1.26444 -0.17591,2.84004 -10.96014,11.34721 -6.65673,5.25119 -7.58888,5.85093 -8.017,5.15821 -0.0921,-0.14898 -0.34813,-0.044 -0.71167,0.29183 -7.66712,7.08219 -19.42857,6.49624 -25.11722,-1.25133 -1.00112,-1.36345 -1.02583,-1.38037 -1.46142,-1.0006 -2.76576,2.41138 -7.37295,4.46182 -8.22555,3.66082 -1.16817,-1.09743 -0.48243,-2.0708 2.62075,-3.72005 1.06461,-0.5658 2.42959,-1.35517 3.03327,-1.75414 0.60369,-0.39897 1.2996,-0.72541 1.54646,-0.72541 0.44885,0 0.44885,0 -0.0501,-1.46689 -1.04547,-3.07377 -1.40868,-8.33439 -0.77975,-11.29318 0.33098,-1.557 0.24499,-1.64703 -0.77978,-0.81652 -0.45066,0.36525 -2.77088,2.21015 -5.15603,4.0998 -2.38515,1.88964 -4.39908,3.53679 -4.47543,3.66032 -0.45206,0.73146 -2.04908,-0.28201 -2.04908,-1.30035 0,-0.72604 1.20909,-1.85606 5.98625,-5.59473 1.85317,-1.45031 3.88861,-3.05482 4.52322,-3.56557 1.27213,-1.02385 1.82175,-1.13716 2.48851,-0.51304 0.44378,0.41536 0.44453,0.41464 1.41154,-1.3442 2.4821,-4.51465 8.09402,-8.31949 12.27076,-8.31949 0.99604,0 1.1975,-0.24266 0.62878,-0.75734 -0.91687,-0.82976 -0.49341,-1.44415 3.11775,-4.52355 0.8248,-0.70334 2.292,-2.07726 3.26045,-3.05315 1.9333,-1.94814 2.52957,-2.17382 3.45255,-1.30671 1.00381,0.94302 -0.38022,2.66317 -6.03533,7.50099 -2.12411,1.81715 -2.12411,1.81715 -0.3302,1.96795 4.8939,0.41139 8.85002,1.88333 10.72956,3.99214 1.04826,1.17612 6.45721,-1.90933 6.45721,-3.68341 0,-0.17256 0.29377,-0.56094 0.65281,-0.86306 0.65281,-0.5493 0.65281,-0.5493 -2.07994,-2.81745 -6.54983,-5.43627 -15.51093,-10.13448 -16.98946,-8.9074 -0.23736,0.19699 -0.72641,0.19668 -2.14229,-10e-4 -4.52404,-0.63288 -14.60668,2.34596 -20.00447,5.91018 -8.45682,5.5841 -13.74531,23.06168 -10.27706,33.96388 4.81767,15.14405 22.98156,25.82258 39.33406,23.12447 z m -0.28512,-5.01851 c -1.15969,-1.23444 -0.6695,-1.7974 4.15641,-4.77352 8.22808,-5.07422 13.11892,-8.56177 14.93514,-10.64991 1.26359,-1.45278 1.9595,-1.65038 2.77082,-0.78678 1.4539,1.54761 -2.05409,4.86564 -11.89901,11.25463 -8.81931,5.72341 -9.1074,5.8667 -9.96336,4.95558 z m -20.20049,-0.83985 c -1.30875,-1.4015 -0.45877,-2.03298 5.86072,-4.35416 6.17852,-2.26941 7.57614,-2.8839 8.26399,-3.6334 0.93382,-1.0175 2.59714,-0.4018 2.59714,0.96136 0,2.25851 -15.20714,8.64826 -16.72185,7.0262 z m -9.90959,-38.08818 c -1.03396,-1.1006 -0.30024,-2.01789 8.81451,-11.02002 7.53178,-7.4387 8.0935,-7.84856 9.17656,-6.69569 0.91391,0.9728 0.67107,1.45135 -1.74479,3.43833 -1.21681,1.00082 -5.07505,4.73465 -8.57384,8.29741 -6.62078,6.74182 -6.81471,6.89297 -7.67244,5.97997 z m 24.80688,26.19132 c 8.17428,-1.68845 13.54598,-7.82615 13.54598,-15.47762 0,-4.88065 -3.87041,-11.50268 -7.57343,-12.95766 -13.64976,-5.36323 -24.64181,4.33744 -21.00322,18.53567 1.98431,7.74306 7.59163,11.43618 15.03067,9.89961 z m -446.58435,15.58151 c -8.3729,-1.64275 -17.2289,-10.49444 -18.6217,-18.61273 -3.2997,-19.23379 7.8663,-37.75316 23.4631,-38.91471 4.4501,-0.33142 11.14379,1.77801 13.91529,4.38525 0.4381,0.41211 0.7864,0.5476 1.2952,0.50377 1.208,-0.10407 1.6131,0.57774 1.7835,3.00171 0.438,6.23145 -2.9607,8.46996 -10.56029,6.95543 -7.5932,-1.51329 -10.5531,0.49583 -13.4085,9.10145 -3.3202,10.00616 0.049,17.73221 7.9683,18.27504 1.8372,0.12592 2.4142,0.01 6.2504,-1.25983 4.14139,-1.37048 7.36489,-1.14808 9.02929,0.62297 2.8686,3.05232 2.3633,6.94371 -1.2801,9.85783 -0.5675,0.45391 -1.5308,1.27135 -2.1407,1.81653 -2.0791,1.85857 -3.3102,2.52642 -6.52619,3.54048 -2.9282,0.9233 -8.3632,1.27702 -11.1676,0.72681 z m 7.6245,-3.08154 c 2.613,-0.45987 5.69379,-1.50943 5.69379,-1.93974 0,-0.43544 1.1217,-1.35374 2.4734,-2.02496 6.7247,-3.33937 4.8441,-9.37599 -2.0998,-6.74012 -1.0185,0.38659 -1.0185,0.38659 -0.2659,1.11603 1.3377,1.29653 1.1054,2.01657 -1.68259,5.21535 -1.4017,1.60828 -1.9938,1.811 -2.874,0.9841 -0.7362,-0.69172 -0.6251,-1.11821 0.7276,-2.79246 1.0278,-1.2721 1.2172,-1.63781 1.1747,-2.26863 -0.028,-0.41363 0.062,-0.88739 0.199,-1.05281 0.3035,-0.36575 0.3543,-0.36676 -1.0935,0.0218 -5.3466,1.43507 -11.0734,-0.91871 -14.3902,-5.91448 -3.8704,-5.82967 -1.7597,-18.35798 4.164,-24.71546 1.0856,-1.16508 1.0856,-1.16508 0.2292,-0.59145 -1.0391,0.69592 -1.5408,0.72015 -2.1945,0.106 -1.2082,-1.13502 -0.8577,-1.58109 3.6961,-4.70388 1.7744,-1.21676 3.9122,-2.72855 4.7508,-3.35952 1.7696,-1.33156 2.0754,-1.37865 3.1579,-0.48634 1.1546,0.95176 0.78,2.56521 -0.5956,2.56521 -0.2542,0 -1.2568,0.5821 -2.228,1.29355 -0.9713,0.71145 -2.4402,1.74187 -3.2642,2.28981 -1.6836,1.11948 -1.9041,1.36399 -0.6558,0.72716 1.1829,-0.60348 3.6729,-0.94502 5.806,-0.79638 1.3752,0.0958 1.7494,0.0661 1.5593,-0.124 -0.8817,-0.88168 -0.04,-1.92419 2.75709,-3.4145 1.11,-0.59142 1.7244,-1.04789 1.7244,-1.28116 0,-0.19931 0.1536,-0.48986 0.3413,-0.64566 0.2974,-0.24679 0.1381,-0.38531 -1.2367,-1.07565 -8.29809,-4.16689 -18.36759,-0.91055 -23.93169,7.73918 -2.0941,3.25546 -4.5896,9.0186 -4.3745,10.10252 0.1216,0.61263 6.0598,-7.62552 6.3311,-8.78324 0.3448,-1.47123 1.8546,-2.15176 2.8012,-1.26256 1.1432,1.07403 0.529,2.33435 -4.3843,8.99554 -4.5358,6.14929 -4.0901,5.64604 -4.9151,5.54972 -0.7131,-0.0833 -0.7131,-0.0833 -0.8854,1.53872 -1.2268,11.5485 2.6649,19.47335 11.7327,23.89207 4.417,2.15239 7.3509,2.61079 11.7522,1.8362 z m -7.6031,-2.34412 c -0.6842,-0.72823 -0.5945,-1.11197 0.7152,-3.06014 0.6506,-0.96775 1.1829,-1.99799 1.1829,-2.28941 0,-1.24987 1.6783,-1.8882 2.5434,-0.96735 0.8177,0.87044 0.6409,1.97561 -0.6302,3.93737 -1.9129,2.95255 -2.7702,3.48776 -3.8113,2.37953 z m -7.9577,-5.59187 c -0.6278,-0.66822 -0.5951,-0.98036 0.2851,-2.72831 0.414,-0.82212 0.7528,-1.77066 0.7528,-2.10786 0,-1.32801 1.6445,-2.00733 2.5433,-1.05059 0.7291,0.77607 0.6271,2.08972 -0.3038,3.9112 -1.2818,2.50805 -2.2365,3.08353 -3.2774,1.97556 z m -6.8823,-8.81795 c -0.7115,-0.7574 -0.6081,-1.06975 1.3248,-4.00148 1.4113,-2.1406 1.8231,-2.94331 1.9372,-3.77534 0.2563,-1.86986 1.6464,-2.65668 2.7042,-1.53065 0.9723,1.03489 0.5054,2.85874 -1.5328,5.98779 -2.5842,3.96724 -3.3126,4.51268 -4.4334,3.31968 z m 303.536585,19.82669 c -5.3631,-0.95647 -9.7701998,-2.32916 -13.5495998,-4.22031 -2.82920004,-1.41576 -3.11850004,-1.58179 -3.11850004,-1.7899 0,-0.10963 -0.1269,-0.19932 -0.282,-0.19932 -0.1552,0 -0.4707,-0.16937 -0.7013,-0.37638 -0.2305,-0.207 -0.90199996,-0.7617 -1.49229996,-1.23267 -1.7622,-1.4062 -4.3615,-4.68891 -4.3991,-5.55588 0,-0.0963 -0.2564,-0.71893 -0.5604,-1.38365 -0.6141,-1.34254 -1.4656,-3.83824 -1.9263,-5.64617 -0.1975,-0.77495 -0.3041,-2.42552 -0.3092,-4.78605 -0.01,-3.89275 0.01,-3.96098 1.8581,-9.4087 0.3017,-0.88717 0.6749,-2.06318 0.8292,-2.61335 1.1291,-4.02394 4.6758,-9.11846 7.8872,-11.32908 0.2717,-0.18706 0.5909,-0.44917 0.7091,-0.58246 0.8126,-0.91554 8.3651998,-5.04666 9.2264998,-5.04666 0.142,0 0.3502,-0.0808 0.4625,-0.17953 0.2427,-0.21319 1.6434,-0.70644 3.4304,-1.20799 0.7098,-0.1992 1.5128,-0.45241 1.7845,-0.56269 0.2717,-0.11028 0.7257,-0.20051 1.0089,-0.20051 0.2832,0 0.5667,-0.084 0.6302,-0.18655 0.063,-0.1026 0.5288,-0.24756 1.0342,-0.32214 0.5055,-0.0746 1.4513,-0.23069 2.1019,-0.34692 11.1975,-2.00049 22.4335,0.32968 23.1025,4.7911 0.7739,5.16068 -3.2358,7.45096 -10.5208,6.00935 -5.4604,-1.08055 -14.2043,-0.19711 -18.7626,1.89568 -0.5015,0.23022 -0.9564,0.41858 -1.0109,0.41858 -0.8926,0 -4.6683998,3.08421 -6.4651998,5.28114 -5.2278,6.39157 -5.5343,11.65531 -1.0696,18.37076 1.5261,2.29557 4.6583998,5.35288 6.5538998,6.39703 2.8275,1.55757 3.0231,1.64055 3.2748,1.38887 0.462,-0.46204 1.3877,-0.28898 1.9353,0.3618 1.1749,1.3963 8.2542,1.85214 12.1032,0.77933 0.7097,-0.19782 1.6776,-0.46152 2.1507,-0.58599 2.615,-0.68792 6.9367,-0.4003 7.9445,0.52873 0.2293,0.21139 0.4929,0.38434 0.5859,0.38434 0.093,0 0.3166,0.28554 0.4971,0.63454 2.7672,5.35116 -14.0819,12.4586 -24.9428,10.52165 z m 10.6203,-2.79241 c 1.3745,-0.35659 2.7894,-0.72611 3.1443,-0.82115 0.3549,-0.095 1.1955,-0.42767 1.8681,-0.73917 0.6726,-0.3115 1.292,-0.56637 1.3765,-0.56637 0.9453,0 4.6287,-2.51575 5.1024,-3.4849 0.8793,-1.79914 -2.7069,-2.73594 -4.7914,-1.25162 -0.3168,0.22559 -1.0771,0.47663 -1.6894,0.55787 -1.0501,0.13929 -1.1135,0.18306 -1.1135,0.76874 0,0.51082 -0.4675,1.07771 -2.6346,3.19436 -2.8281,2.76233 -3.2581,2.97978 -4.18,2.11371 -0.8659,-0.81342 -0.6574,-1.26061 1.5991,-3.43047 2.097,-2.01638 2.097,-2.01638 -1.4517,-2.15491 -3.3185,-0.12955 -5.9615,-0.41854 -6.4201,-0.70197 -0.1091,-0.0674 -0.3303,0.0374 -0.4916,0.23283 -0.3651,0.44254 -5.666,4.82511 -6.2165,5.13958 -0.3464,0.19782 -0.2449,0.26919 0.7167,0.50391 0.6161,0.1504 1.4106,0.35533 1.7654,0.45539 4.3822,1.23567 9.1131,1.30061 13.4163,0.18417 z m -17.1425,-1.5491 c -1.0165998,-1.08211 -0.5568998,-1.77761 3.1422,-4.75418 1.4383,-1.15731 1.5318,-1.28023 1.1404,-1.49928 -0.2345,-0.13123 -0.9395,-0.51457 -1.5667,-0.85186 -1.7857,-0.96029 -4.1732998,-2.86054 -6.3729998,-5.07217 -1.5905,-1.59922 -2.0568,-1.96022 -2.2004,-1.70367 -0.7484,1.33737 -3.71920004,4.48562 -4.23280004,4.48562 -1.86449996,0 -1.91819996,-1.41361 -0.1351,-3.55599 0.7843,-0.9423 1.52840004,-1.95523 1.65360004,-2.25095 0.1252,-0.29573 0.4599,-0.79394 0.7439,-1.10715 0.5163,-0.56947 0.5163,-0.56947 -0.067,-1.61304 -2.14180004,-3.83024 -2.24720004,-8.99031 -0.263,-12.87253 0.5901,-1.15456 -0.575,-0.0798 -3.20590004,2.95724 -1.43869996,1.66083 -1.93409996,2.09695 -2.38229996,2.09695 -0.6899,0 -1.562,-0.77269 -1.5594,-1.38169 0,-0.86559 5.87589996,-7.22119 6.672,-7.22119 0.5699,0 1.4988,0.7747 1.4988,1.24996 0,0.17308 0.2904,-0.0507 0.6453,-0.49721 0.3548,-0.44654 0.6452,-0.87117 0.6453,-0.94363 0,-0.46322 5.1159,-5.24491 6.2369998,-5.82999 0.2957,-0.15434 0.586,-0.33871 0.6452,-0.40972 0.059,-0.071 0.4117,-0.29783 0.7835,-0.50404 2.7803,-1.54217 6.3647,-2.74361 8.1853,-2.74361 0.7899,0 0.7899,0 0.212,-0.60322 -1.1782,-1.22976 -0.8401,-1.76977 2.3942,-3.82347 1.1024,-0.69999 2.409,-1.53126 2.9035,-1.84726 1.1387,-0.72764 1.8693,-0.75494 2.4911,-0.0931 0.9925,1.05643 0.4594,1.86176 -2.3841,3.60145 -3.9574,2.4212 -3.9349,2.38458 -1.3789,2.24679 1.29,-0.0695 3.5402,-0.12643 5.0004,-0.12643 2.0391,0 2.655,-0.0651 2.655,-0.28042 0,-0.41639 1.17,-1.44842 3.226,-2.84566 3.3967,-2.30825 3.421,-2.33884 2.1319,-2.68594 -4.9766,-1.34007 -14.1947,-0.9389 -19.5527,0.85093 -0.2957,0.0988 -0.9248,0.28624 -1.398,0.41656 -1.6684,0.45952 -3.5365,1.07713 -4.3444,1.43631 -0.4495,0.19982 -1.156,0.51053 -1.57,0.69047 -1.8414998,0.80033 -4.6704998,2.2412 -5.1617998,2.62897 -0.2957,0.23344 -0.6059,0.42658 -0.6894,0.42921 -0.6411,0.0202 -3.8941,2.93154 -4.86650004,4.35541 -0.1835,0.26867 -0.3946,0.53688 -0.4691,0.59603 -0.2518,0.19977 -2.14769996,3.23779 -2.14769996,3.44142 0,0.11106 -0.2903,0.7733 -0.6452,1.47164 -0.3549,0.69833 -0.6452,1.42269 -0.6452,1.60969 0,0.18699 -0.247,0.99767 -0.5489,1.8015 -0.3018,0.80384 -0.7406,2.139 -0.975,2.96703 -0.2345,0.82802 -0.5793,1.89263 -0.7664,2.36579 -1.2561,3.17701 -0.4269,9.95345 1.7501,14.30228 0.2664,0.53231 0.5513,1.1837 0.633,1.44754 0.5072,1.63773 4.09309996,5.86491 4.9753,5.86491 0.1698,0 0.3094,0.0726 0.3103,0.16131 0,0.0887 0.2187,0.26519 0.484,0.39217 0.2652,0.12699 0.9661,0.48459 1.5576,0.79468 1.2976,0.68035 6.4315998,2.7759 7.1885998,2.9342 0.05,0.0105 -0.1192,-0.20492 -0.3764,-0.47869 z m -6.4521998,-36.99238 c -0.9354,-0.99576 -0.6948,-1.43674 2.1599,-3.95714 1.4451,-1.27592 3.4816,-3.11298 4.5253998,-4.08236 1.6246,-1.50869 2.0378,-1.78347 2.8689,-1.9081 2.3625,-0.35429 2.7778,2.4581 0.4484,3.03642 -0.3334,0.0827 -1.4087,0.89406 -2.3897,1.80291 -5.8892998,5.45609 -6.7459998,6.03097 -7.6128998,5.10827 z M -104.4884,-425.82991 c -9.9475,-0.75081 -19.5908,-2.07956 -30.2169,-4.16358 -2.8118,-0.55146 -3.269,-0.59308 -3.5656,-0.32463 -0.4804,0.43469 -1.1669,0.38625 -3.3472,-0.23612 -9.2462,-2.63948 -12.2319,-9.96641 -6.3655,-15.62158 4.1454,-3.99623 9.6419,-4.94978 18.2978,-3.17438 6.3076,1.29373 11.9125,1.9513 20.0356,2.35058 19.661699,0.96643 29.205699,5.14454 28.760999,12.59085 -0.4216,7.05923 -7.8681,9.7662 -23.599199,8.57886 z m 4.774599,-2.93284 c -0.939799,-0.93974 -0.048,-1.95014 4.0241,-4.5604 3.0869,-1.97866 3.4808,-2.10658 4.253,-1.38112 1.1819,1.11036 0.646,1.84313 -2.9968,4.09711 -3.5533,2.19859 -3.4541,2.10249 -2.1708,2.10249 8.9875,0 14.1,-3.31926 12.337,-8.00968 -1.5014,-3.99461 -11.0151,-6.73059 -26.028099,-7.48529 -8.4554,-0.42505 -12.4867,-0.88636 -19.5715,-2.23965 -9.5082,-1.81619 -15.9876,-0.29592 -17.6457,4.14023 -0.5138,1.37444 -0.5499,1.38563 2.5906,-0.80259 4.2439,-2.95701 4.8295,-3.19589 5.7393,-2.34114 0.6903,0.64847 0.6509,1.53313 -0.094,2.10329 -0.422,0.32317 -7.0799,4.7518 -7.9735,5.30376 -0.204,0.12603 0.7053,1.42288 1.3982,1.99402 0.7136,0.58821 0.8377,0.6251 1.1506,0.34196 0.4115,-0.37243 0.9338,-0.40511 1.5138,-0.0947 0.3533,0.18905 0.416,0.15059 0.416,-0.25497 0,-0.6931 0.8222,-1.47317 1.5527,-1.47317 0.3809,0 1.2112,-0.39815 2.167,-1.0391 5.8961,-3.95381 8.2859,-5.08099 9.117,-4.30021 1.2702,1.1933 0.7947,1.73513 -4.1263,4.70235 -6.0861,3.66977 -6.0254,3.60473 -3.8713,4.14505 2.5084,0.62917 3.3336,0.68185 3.3336,0.21279 0,-0.57707 1.0979,-1.57016 1.7358,-1.57016 0.6502,0 2.164,-0.87753 7.2973,-4.23018 5.7316,-3.74345 6.2633,-3.96689 7.2448,-3.04478 1.0582,0.9941 0.5183,2.00228 -1.653,3.08675 -1.2651,0.63187 -1.345,0.6818 -7.1422,4.45986 -3.0839,2.00972 -3.7183,2.50435 -3.3337,2.59902 2.7993,0.68893 4.1663,0.65857 5.1231,-0.11374 1.1405,-0.92049 6.1658,-4.27273 8.2688,-5.51584 1.7167,-1.01475 2.3242,-1.10066 3.0384,-0.42968 1.0248,0.96275 0.4959,1.78536 -2.1906,3.40717 -5.9287,3.57903 -6.3408,3.95676 -4.6179,4.23231 0.8945,0.14304 1.7976,0.17953 2.037,0.0823 1.9156,-0.77794 4.3543,-2.1959 7.4925,-4.35654 3.8956,-2.68198 4.2288,-2.81964 5.0216,-2.0748 1.2332,1.15851 0.8259,1.64369 -4.3914,5.23178 -3.0397,2.09046 -3.0542,2.13 -0.864,2.35706 1.4093,0.1461 1.4518,0.13626 1.4518,-0.33667 0,-0.66248 0.8155,-1.48271 1.4742,-1.48271 0.5464,0 2.202,-0.98255 4.7896,-2.84247 4.387199,-3.15339 5.706499,-3.74089 6.572799,-2.92699 1.0411,0.978 0.5838,1.86471 -1.6529,3.20558 -2.668199,1.59954 -7.116099,4.8235 -6.734799,4.88162 0.3602,0.0549 4.4374,0.3782 5.648699,0.44788 0.4098,0.0236 0.4695,-0.027 0.2688,-0.22777 z M -323.9694,-429.2887 c -9.8891,-1.13977 -22.6901,-15.74044 -22.6901,-25.88005 0,-12.09685 9.2199,-20.00654 23.3205,-20.00654 14.99731,0 14.86381,18.57228 -0.1522,21.1731 -2.366,0.40979 -6.8228,3.09454 -6.8228,4.11001 0,0.67424 0.7006,1.98722 1.1759,2.20379 0.279,0.12714 0.6249,0.55634 0.7686,0.95378 0.305,0.84322 1.1013,1.40769 2.8946,2.05184 4.4138,1.58537 7.7827,0.94783 13.6229,-2.57802 6.14261,-3.70844 11.02971,-2.45996 11.51931,2.94276 0.5711,6.30174 -14.76331,16.05205 -23.63671,15.02933 z m 4.903,-3.40753 c 1.7694,-0.46087 4.9961,-1.74991 6.6034,-2.638 0.7688,-0.42484 1.7367,-0.9597 2.1507,-1.18859 3.32921,-1.84053 6.16181,-4.68644 6.64451,-6.67564 0.8918,-3.67516 -1.7664,-4.16024 -6.84451,-1.24903 -2.6636,1.52698 -4.6783,2.50062 -6.094,2.94497 -1.2398,0.38915 -1.2398,0.38915 -0.5915,1.0581 0.9422,0.97213 0.6278,2.94695 -0.694,4.35847 -1.1149,1.19054 -2.8281,0.0797 -2.3308,-1.51126 0.1562,-0.49957 0.2734,-1.2868 0.2604,-1.7494 -0.013,-0.4626 0.078,-0.96316 0.2015,-1.11236 0.1773,-0.21363 -0.141,-0.28625 -1.4981,-0.3418 -1.0889,-0.0446 -1.6477,0.005 -1.518,0.13378 0.5986,0.59553 0.066,2.84394 -0.9326,3.93582 -1.1565,1.26476 -3.0861,-0.21335 -2.2646,-1.73471 0.1395,-0.25838 0.2325,-0.79663 0.2065,-1.19611 -0.028,-0.43478 0.098,-0.88623 0.3133,-1.12465 0.3384,-0.37394 0.3357,-0.40613 -0.045,-0.52621 -1.3958,-0.4401 -3.1282,-1.43908 -4.2693,-2.46193 -0.7259,-0.65059 -1.6192,-1.40728 -1.9851,-1.68153 -4.7425,-3.55394 -0.4527,-10.13603 7.803,-11.97276 7.2443,-1.6117 10.3423,-7.24069 6.8894,-12.51772 -2.535,-3.87415 -15.9919,-2.42446 -21.2516,2.2894 -4.1632,3.73118 -6.3446,11.32379 -4.7298,16.46263 2.7666,8.80448 11.8095,17.5213 19.6111,18.90396 0.8322,0.1475 3.024,-0.0561 4.3653,-0.40543 z m -18.7376,-11.14618 c -0.5514,-0.58686 -0.5816,-1.06094 -0.1463,-2.29468 0.2019,-0.57219 0.2711,-1.22541 0.1861,-1.75672 -0.2845,-1.77921 1.405,-2.5055 2.706,-1.16325 0.6571,0.67791 0.705,0.8172 0.5738,1.66681 -0.5247,3.39773 -1.9897,4.96345 -3.3196,3.54784 z m -2.3658,-6.66723 c -0.6318,-0.67249 -0.5963,-0.98021 0.3215,-2.78744 0.4599,-0.90576 0.7714,-1.8146 0.7467,-2.1789 -0.096,-1.4162 1.7447,-2.18229 2.7281,-1.13549 0.6787,0.72244 0.5946,1.78045 -0.297,3.73799 -1.2457,2.73487 -2.4112,3.52215 -3.4993,2.36384 z m -2.5809,-5.3768 c -0.6833,-0.72733 -0.602,-1.03951 0.8228,-3.15845 0.7097,-1.05553 1.2904,-2.05116 1.2904,-2.21251 0,-0.7986 1.8719,-1.63874 2.2583,-1.01357 0.2383,0.38564 0.4464,0.22865 0.7276,-0.54911 1.2534,-3.46624 6.8268,-6.76334 11.4328,-6.76334 0.6937,0 1.5004,-0.10889 1.7925,-0.24199 2.2037,-1.00408 5.296,1.70938 5.296,4.6472 0,3.14033 -2.0192,5.44905 -5.5458,6.34095 -0.9802,0.24788 -2.1899,0.6336 -2.6884,0.85715 -4.689,2.10282 -6.7465,2.02858 -9.1913,-0.33163 -1.4166,-1.36766 -1.4166,-1.36766 -2.352,0.055 -1.9233,2.92536 -2.8085,3.47133 -3.8429,2.37025 z m 11.5911,-3.93492 c 0.6425,-0.19049 1.5358,-0.53358 1.9851,-0.76243 0.4493,-0.22886 1.9979,-0.77468 3.4412,-1.21294 3.5062,-1.06466 5.2102,-4.21495 2.6301,-4.86251 -5.4553,-1.36919 -15.4595,5.10197 -10.569,6.83644 1.1478,0.40707 1.1444,0.40707 2.5126,0.002 z m 454.38921,-2.55878 c -0.0354,-0.0323 -0.59668,-0.11002 -1.24727,-0.17277 -7.50844,-0.7241 -10.62417,-7.37959 -6.1608,-13.16006 2.4536,-3.17764 9.59608,-6.52877 11.98959,-5.62532 0.48359,0.18253 0.82418,0.16019 1.53641,-0.10078 1.33177,-0.488 4.46376,1.41047 4.46376,2.70573 0,0.16287 0.0726,0.32839 0.1613,0.36782 0.73284,0.32571 1.51095,5.09348 1.06469,6.52385 -0.2729,0.87473 -1.60491,3.71667 -1.93078,4.11948 -0.87842,1.08581 -2.66754,2.86846 -2.87975,2.86933 -0.13799,6.4e-4 -0.28317,0.0736 -0.32261,0.16233 -0.14008,0.31517 -3.24527,1.65255 -4.31434,1.85814 -0.26891,0.0517 -0.89548,0.18783 -1.39238,0.30248 -0.4969,0.11465 -0.93242,0.18205 -0.96782,0.14977 z m 2.50251,-3.78856 c 4.10002,-1.09798 7.35628,-6.8616 5.70513,-10.09814 -0.41443,-0.81233 -0.85203,-1.26578 -0.85203,-0.88288 0,0.31893 -1.23254,0.74521 -1.82644,0.63169 -0.47257,-0.0904 -0.53935,-0.0281 -0.53935,0.50312 0,0.48955 -0.29143,0.84601 -1.5142,1.85206 -5.69237,4.68348 -6.27513,5.01461 -7.23612,4.1118 -1.08482,-1.01912 -0.64575,-1.75477 2.29816,-3.85063 0.88717,-0.6316 2.25047,-1.70885 3.02954,-2.39388 1.42531,-1.25325 2.19178,-1.53004 2.73439,-0.98743 0.31123,0.31122 0.33645,0.0752 0.0493,-0.46135 -0.67193,-1.25552 -5.55219,0.66654 -8.19045,3.22576 -1.94606,1.88774 -2.97279,4.83476 -2.07035,5.94239 1.98062,2.4309 5.0475,3.3086 8.41239,2.40749 z m -3.06708,-2.19191 c -1.00075,-1.06526 -0.67672,-1.58937 2.59502,-4.19731 2.13947,-1.70539 3.60458,-1.60538 3.60458,0.24604 0,1.51724 -5.30804,4.90028 -6.1996,3.95127 z"
         id="path336"
         inkscape:export-filename="kecsk-actioninkscape.svg"
         inkscape:export-xdpi="96"
         inkscape:export-ydpi="96" /></g></g></svg>
