<?xml version="1.0" encoding="UTF-8" standalone="no"?>
<!-- Created with Inkscape (http://www.inkscape.org/) -->

<svg
   width="210mm"
   height="297mm"
   viewBox="0 0 210 297"
   version="1.1"
   id="svg5"
   xml:space="preserve"
   inkscape:export-filename="második.png"
   inkscape:export-xdpi="96"
   inkscape:export-ydpi="96"
   inkscape:version="1.2.1 (9c6d41e410, 2022-07-14)"
   sodipodi:docname="második.svg"
   xmlns:inkscape="http://www.inkscape.org/namespaces/inkscape"
   xmlns:sodipodi="http://sodipodi.sourceforge.net/DTD/sodipodi-0.dtd"
   xmlns="http://www.w3.org/2000/svg"
   xmlns:svg="http://www.w3.org/2000/svg"><sodipodi:namedview
     id="namedview7"
     pagecolor="#ffffff"
     bordercolor="#000000"
     borderopacity="0.25"
     inkscape:showpageshadow="2"
     inkscape:pageopacity="0.0"
     inkscape:pagecheckerboard="0"
     inkscape:deskcolor="#d1d1d1"
     inkscape:document-units="mm"
     showgrid="false"
     inkscape:zoom="0.75455247"
     inkscape:cx="263.06984"
     inkscape:cy="553.97075"
     inkscape:window-width="1920"
     inkscape:window-height="1027"
     inkscape:window-x="-8"
     inkscape:window-y="22"
     inkscape:window-maximized="1"
     inkscape:current-layer="layer1" /><defs
     id="defs2" /><g
     inkscape:label="Layer 1"
     inkscape:groupmode="layer"
     id="layer1"><path
       style="fill:#000000;stroke-width:0.661573"
       d="m 78.923344,199.45578 c -2.89009,-1.0269 -6.98177,-4.64349 -8.77479,-7.7559 -2.46298,-4.27536 -3.28735,-7.06277 -5.88138,-19.88706 -3.41975,-16.90649 -5.22168,-21.17926 -12.56216,-29.78759 -6.65741,-7.80727 -8.62844,-12.02254 -10.251839,-21.92467 -0.864487,-5.27304 -0.916897,-6.94949 -0.314055,-10.04592 1.108297,-5.69273 3.063164,-9.70288 7.216824,-14.804362 l 3.79259,-4.65806 -2.27365,-2.62119 c -1.31074,-1.51108 -4.18196,-6.88823 -6.77964,-12.69667 -5.218361,-11.66838 -7.27328,-14.94327 -12.192932,-19.43158 -5.460778,-4.98198 -8.61842,-6.36207 -13.294237,-5.81049 -4.822032,0.56883 -6.765371,-0.60088 -6.765371,-4.07211 0,-4.4854 8.826866,-12.19414 16.335579,-14.26632 5.296929,-1.46178 12.593965,-0.59482 17.389951,2.06612 8.50913,4.72106 14.43735,11.24314 17.22274,18.94805 0.66752,1.84643 2.4936,9.33582 4.05798,16.64309 l 2.84432,13.28594 6.94217,0.47009 c 3.81818,0.25858 9.84965,0.95402 13.40328,1.54546 3.5536,0.59143 6.50332,0.99457 6.55494,0.8959 0.0517,-0.0988 0.86224,-1.80025 1.80142,-3.78125 5.784166,-12.20067 22.104796,-33.69478 29.730756,-39.15515 1.85622,-1.32908 5.09161,-3.26638 7.1898,-4.3051 3.49159,-1.7285 4.53565,-1.88997 12.32097,-1.90555 8.10072,-0.0168 8.78118,0.0975 14.2781,2.38545 8.25548,3.43616 18.79737,9.70901 22.08802,13.14322 3.16538,3.30349 3.69326,5.98825 1.61573,8.21745 -1.36928,1.46918 -2.19972,1.5274 -10.6408,0.74611 -7.92684,-0.73372 -19.16954,0.56579 -28.14384,3.25298 -5.15102,1.54241 -8.9891,3.31666 -14.90372,6.88958 -9.95658,6.01457 -28.16672,30.117092 -22.40617,23.68981 l 2.63767,-2.94296 2.54804,1.70351 c 3.30274,2.2081 6.7838,6.23761 8.652,10.015172 2.03731,4.11955 3.51029,12.00433 3.00349,16.07751 -0.62665,5.03631 -3.54064,12.59566 -8.13528,21.1041 -2.30783,4.27365 -4.95729,9.94652 -5.88767,12.60638 -10.07227,28.79482 -12.249156,33.78548 -17.068046,39.12973 -5.69832,6.31957 -10.79423,8.65535 -15.35079,7.03628 z m 6.39753,-6.73065 c 1.17549,-0.58229 3.70799,-2.93251 5.62778,-5.22263 3.91878,-4.67474 6.27136,-9.90736 12.194776,-27.12367 3.88279,-11.28527 5.05023,-14.01189 10.60085,-24.75854 4.74888,-9.19443 5.85634,-12.81488 5.84914,-19.12212 -0.0113,-9.92581 -3.66897,-15.5068 -13.18782,-20.122632 -8.610896,-4.17554 -20.613656,-6.47933 -34.197426,-6.56384 -8.31842,-0.0519 -10.72832,0.65501 -11.04175,3.23841 -0.20481,1.68754 -2.04522,3.13643 -4.83389,3.80551 -2.50411,0.60078 -7.5872,6.472232 -8.76276,10.121782 -1.42316,4.41824 -0.96502,14.26424 0.93586,20.11295 1.12955,3.47541 2.46914,5.53677 7.25599,11.16563 5.87855,6.91254 9.04256,12.61451 10.97777,19.78336 l 0.75447,2.79491 3.52416,-0.43669 c 4.36856,-0.5414 7.18786,-1.83876 14.60925,-6.72281 6.53505,-4.30077 8.54623,-4.71443 10.01342,-2.05955 1.18908,2.1516 0.69591,4.36231 -2.85009,12.77663 -2.94752,6.99424 -5.22877,10.07774 -9.18479,12.41509 -3.59891,2.12631 -5.18701,2.26213 -9.2981,0.79522 -1.6248,-0.57978 -3.06611,-0.92142 -3.20293,-0.75924 -0.13673,0.16211 0.0788,1.91311 0.47892,3.89097 1.07099,5.29305 3.6388,9.64768 6.77399,11.48761 3.14256,1.84429 4.11502,1.91463 6.96318,0.50365 z m -4.49376,-21.29759 c 1.23168,-0.40558 2.95563,-1.74665 3.83105,-2.98014 1.37956,-1.94387 4.56223,-8.58401 4.56223,-9.51839 0,-0.17886 -2.54674,1.21198 -5.65944,3.0909 -3.11267,1.87895 -7.35054,3.84178 -9.41746,4.36184 -2.06694,0.52006 -3.75804,1.18572 -3.75804,1.47927 0,0.89288 1.52222,2.09994 4.01311,3.18224 2.92267,1.26989 3.61372,1.31119 6.42855,0.38428 z M 105.23588,91.960478 c 4.24894,-7.75763 12.79432,-19.81447 21.28981,-25.23941 12.91315,-8.24599 24.43656,-11.80859 40.76861,-12.60411 l 9.11368,-0.44393 -5.16441,-2.98653 c -16.22442,-9.38247 -28.25582,-10.63793 -39.45233,-4.11686 -3.55439,2.07013 -5.82518,4.18113 -10.65966,9.9095 -8.61827,10.21178 -21.11866,29.30352 -20.03998,30.60688 0.452,0.54612 3.97492,2.11515 4.91774,2.19025 0.37846,0.0301 -2.23294,5.34891 -0.77346,2.68421 z m -45.930346,-6.23124 c 1.38332,-0.7924 2.80173,-1.44072 3.15203,-1.44072 0.3503,0 0.63692,-0.35838 0.63692,-0.79642 0,-2.60406 -5.68726,-27.13786 -7.0064,-30.22428 -2.19695,-5.14024 -6.22662,-9.5272 -11.69124,-12.72786 -4.487971,-2.62862 -4.839192,-2.7142 -11.044336,-2.69095 -5.366602,0.0201 -6.924642,0.29642 -9.579622,1.69976 -4.571442,2.41613 -5.029174,3.38012 -1.887799,3.97568 5.378299,1.0197 15.283407,9.19397 19.510077,16.10089 1.14852,1.87684 4.06108,7.78865 6.47236,13.13736 3.82452,8.48359 7.33939,14.40729 8.54866,14.40729 0.20594,0 1.50606,-0.64835 2.88935,-1.44075 z"
       id="path302"
       sodipodi:nodetypes="ssssssscssssssssscsssssscssssssscsssscsssssssscsssssscssssssscssssssssssssscsssssssssssscsssss" /><ellipse
       style="fill:#ff2a2a;stroke-width:35.8651"
       id="path452"
       cx="61.53896"
       cy="108.35065"
       rx="4.0324674"
       ry="3.8571427" /><ellipse
       style="fill:#ff2a2a;stroke-width:35.8651"
       id="path454"
       cx="95.551949"
       cy="115.53896"
       rx="4.0324674"
       ry="3.681818" /></g></svg>
